<?xml version="1.0" encoding="UTF-8" standalone="no"?>
<!-- Created with Inkscape (http://www.inkscape.org/) -->

<svg
   xmlns:dc="http://purl.org/dc/elements/1.1/"
   xmlns:cc="http://creativecommons.org/ns#"
   xmlns:rdf="http://www.w3.org/1999/02/22-rdf-syntax-ns#"
   xmlns:svg="http://www.w3.org/2000/svg"
   xmlns="http://www.w3.org/2000/svg"
   xmlns:xlink="http://www.w3.org/1999/xlink"
   xmlns:sodipodi="http://sodipodi.sourceforge.net/DTD/sodipodi-0.dtd"
   xmlns:inkscape="http://www.inkscape.org/namespaces/inkscape"
   width="744.09448819"
   height="1052.3622047"
   id="svg2"
   version="1.1"
   inkscape:version="0.48.0 r9654"
   sodipodi:docname="title.svg">
  <defs
     id="defs4">
    <linearGradient
       id="linearGradient3859"
       inkscape:collect="always">
      <stop
         id="stop3861"
         offset="0"
         style="stop-color:#000000;stop-opacity:0" />
      <stop
         id="stop3863"
         offset="1"
         style="stop-color:#000000;stop-opacity:0;" />
    </linearGradient>
    <linearGradient
       id="linearGradient3853"
       inkscape:collect="always">
      <stop
         id="stop3855"
         offset="0"
         style="stop-color:#000000;stop-opacity:0" />
      <stop
         id="stop3857"
         offset="1"
         style="stop-color:#000000;stop-opacity:0;" />
    </linearGradient>
    <linearGradient
       id="linearGradient3847"
       inkscape:collect="always">
      <stop
         id="stop3849"
         offset="0"
         style="stop-color:#000000;stop-opacity:0" />
      <stop
         id="stop3851"
         offset="1"
         style="stop-color:#000000;stop-opacity:0;" />
    </linearGradient>
    <linearGradient
       id="linearGradient3841"
       inkscape:collect="always">
      <stop
         id="stop3843"
         offset="0"
         style="stop-color:#000000;stop-opacity:0" />
      <stop
         id="stop3845"
         offset="1"
         style="stop-color:#000000;stop-opacity:0;" />
    </linearGradient>
    <linearGradient
       inkscape:collect="always"
       id="linearGradient3823">
      <stop
         style="stop-color:#000000;stop-opacity:1;"
         offset="0"
         id="stop3825" />
      <stop
         style="stop-color:#000000;stop-opacity:0;"
         offset="1"
         id="stop3827" />
    </linearGradient>
    <linearGradient
       inkscape:collect="always"
       id="linearGradient4009">
      <stop
         style="stop-color:#e60000;stop-opacity:1"
         offset="0"
         id="stop4011" />
      <stop
         style="stop-color:#ffffff;stop-opacity:1"
         offset="1"
         id="stop4013" />
    </linearGradient>
    <linearGradient
       id="linearGradient3864">
      <stop
         style="stop-color:#d9200e;stop-opacity:1;"
         offset="0"
         id="stop3866" />
      <stop
         style="stop-color:#ffffff;stop-opacity:1"
         offset="1"
         id="stop3868" />
    </linearGradient>
    <linearGradient
       inkscape:collect="always"
       id="linearGradient3792">
      <stop
         style="stop-color:#ff0000;stop-opacity:1"
         offset="0"
         id="stop3794" />
      <stop
         style="stop-color:#ffffff;stop-opacity:1"
         offset="1"
         id="stop3796" />
    </linearGradient>
    <linearGradient
       inkscape:collect="always"
       xlink:href="#linearGradient3792"
       id="linearGradient3798"
       x1="647.14679"
       y1="174.56578"
       x2="647.14679"
       y2="212.01022"
       gradientUnits="userSpaceOnUse"
       gradientTransform="translate(-248.57676,-40.720573)" />
    <linearGradient
       inkscape:collect="always"
       xlink:href="#linearGradient3864"
       id="linearGradient3870"
       x1="303.35022"
       y1="103.87631"
       x2="303.35022"
       y2="144.85776"
       gradientUnits="userSpaceOnUse"
       gradientTransform="matrix(1.105252,0,0,1.105252,-228.17799,-21.21299)" />
    <linearGradient
       inkscape:collect="always"
       xlink:href="#linearGradient4009"
       id="linearGradient4015"
       x1="246.92354"
       y1="135.27203"
       x2="246.24081"
       y2="165.07153"
       gradientUnits="userSpaceOnUse" />
    <linearGradient
       inkscape:collect="always"
       xlink:href="#linearGradient3864"
       id="linearGradient4029"
       gradientUnits="userSpaceOnUse"
       gradientTransform="matrix(1.105252,0,0,1.105252,-171.51267,92.886052)"
       x1="303.35022"
       y1="103.87631"
       x2="303.35022"
       y2="141.79929" />
    <linearGradient
       inkscape:collect="always"
       xlink:href="#linearGradient3864"
       id="linearGradient4041"
       gradientUnits="userSpaceOnUse"
       gradientTransform="matrix(0.95997391,0,0,0.95997391,144.17565,-47.416008)"
       x1="303.35022"
       y1="103.87631"
       x2="303.35022"
       y2="144.85776" />
    <linearGradient
       inkscape:collect="always"
       xlink:href="#linearGradient3864"
       id="linearGradient4074"
       gradientUnits="userSpaceOnUse"
       gradientTransform="matrix(1.105252,0,0,1.105252,-252.41293,50.62839)"
       x1="303.35022"
       y1="103.87631"
       x2="303.35022"
       y2="144.85776" />
    <linearGradient
       inkscape:collect="always"
       xlink:href="#linearGradient3864"
       id="linearGradient4097"
       gradientUnits="userSpaceOnUse"
       gradientTransform="matrix(1.105252,0,0,1.105252,-228.17799,45.10213)"
       x1="303.35022"
       y1="103.87631"
       x2="303.35022"
       y2="144.85776" />
    <linearGradient
       inkscape:collect="always"
       xlink:href="#linearGradient3864"
       id="linearGradient4131"
       gradientUnits="userSpaceOnUse"
       gradientTransform="matrix(0.95997391,0,0,0.95997391,-102.28393,-49.873522)"
       x1="303.35022"
       y1="103.87631"
       x2="303.35022"
       y2="144.85776" />
    <linearGradient
       inkscape:collect="always"
       xlink:href="#linearGradient3864"
       id="linearGradient4149"
       gradientUnits="userSpaceOnUse"
       gradientTransform="matrix(1.105252,0,0,1.105252,-173.79756,67.66166)"
       x1="303.35022"
       y1="103.87631"
       x2="303.35022"
       y2="144.85776" />
    <linearGradient
       inkscape:collect="always"
       xlink:href="#linearGradient3864"
       id="linearGradient4206"
       gradientUnits="userSpaceOnUse"
       gradientTransform="matrix(1.105252,0,0,1.105252,-228.18302,41.982078)"
       x1="303.35022"
       y1="103.87631"
       x2="303.35022"
       y2="144.85776" />
    <linearGradient
       inkscape:collect="always"
       xlink:href="#linearGradient3864"
       id="linearGradient4232"
       gradientUnits="userSpaceOnUse"
       gradientTransform="matrix(0.95997391,0,0,0.95997391,-102.28393,-49.873522)"
       x1="303.35022"
       y1="103.87631"
       x2="303.35022"
       y2="144.85776" />
    <linearGradient
       inkscape:collect="always"
       xlink:href="#linearGradient3859"
       id="linearGradient3829"
       x1="330.10727"
       y1="-147.35823"
       x2="330.10727"
       y2="-94.450012"
       gradientUnits="userSpaceOnUse" />
    <linearGradient
       inkscape:collect="always"
       xlink:href="#linearGradient3823"
       id="linearGradient3831"
       x1="412.36969"
       y1="-120.67795"
       x2="629.44871"
       y2="-120.67795"
       gradientUnits="userSpaceOnUse" />
    <linearGradient
       inkscape:collect="always"
       xlink:href="#linearGradient3853"
       id="linearGradient3833"
       x1="330.10727"
       y1="-147.35823"
       x2="330.10727"
       y2="-94.450012"
       gradientUnits="userSpaceOnUse" />
    <linearGradient
       inkscape:collect="always"
       xlink:href="#linearGradient3847"
       id="linearGradient3835"
       x1="330.10727"
       y1="-147.35823"
       x2="330.10727"
       y2="-94.450012"
       gradientUnits="userSpaceOnUse" />
    <linearGradient
       inkscape:collect="always"
       xlink:href="#linearGradient3841"
       id="linearGradient3837"
       x1="269.64728"
       y1="157.17258"
       x2="269.64728"
       y2="218.08769"
       gradientUnits="userSpaceOnUse" />
    <linearGradient
       inkscape:collect="always"
       xlink:href="#linearGradient3823"
       id="linearGradient3839"
       x1="77.3125"
       y1="185.0625"
       x2="333.8125"
       y2="185.0625"
       gradientUnits="userSpaceOnUse" />
    <filter
       inkscape:collect="always"
       id="filter3873">
      <feGaussianBlur
         inkscape:collect="always"
         stdDeviation="0.74623429"
         id="feGaussianBlur3875" />
    </filter>
    <filter
       inkscape:collect="always"
       id="filter3877">
      <feGaussianBlur
         inkscape:collect="always"
         stdDeviation="0.74623429"
         id="feGaussianBlur3879" />
    </filter>
  </defs>
  <sodipodi:namedview
     id="base"
     pagecolor="#ffffff"
     bordercolor="#666666"
     borderopacity="1.0"
     inkscape:pageopacity="0.0"
     inkscape:pageshadow="2"
     inkscape:zoom="1.979899"
     inkscape:cx="405.09078"
     inkscape:cy="1049.4315"
     inkscape:document-units="px"
     inkscape:current-layer="text2989"
     showgrid="false"
     inkscape:window-width="1920"
     inkscape:window-height="1003"
     inkscape:window-x="1280"
     inkscape:window-y="24"
     inkscape:window-maximized="1" />
  <metadata
     id="metadata7">
    <rdf:RDF>
      <cc:Work
         rdf:about="">
        <dc:format>image/svg+xml</dc:format>
        <dc:type
           rdf:resource="http://purl.org/dc/dcmitype/StillImage" />
        <dc:title></dc:title>
      </cc:Work>
    </rdf:RDF>
  </metadata>
  <g
     inkscape:label="Livello 1"
     inkscape:groupmode="layer"
     id="layer1">
    <g
       style="font-size:72px;font-style:normal;font-weight:normal;line-height:125%;letter-spacing:0px;word-spacing:0px;fill:#000000;fill-opacity:1;stroke:none;font-family:Sans"
       id="text2989">
      <text
         xml:space="preserve"
         style="font-size:61.4383316px;font-style:normal;font-variant:normal;font-weight:bold;font-stretch:normal;text-align:start;line-height:109.00000334%;letter-spacing:0px;word-spacing:0px;writing-mode:lr-tb;text-anchor:start;fill:url(#linearGradient4131);fill-opacity:1;stroke:none;font-family:Ubuntu;-inkscape-font-specification:Ubuntu Bold"
         x="160.99506"
         y="92.467247"
         id="text3843"
         sodipodi:linespacing="109%"
         transform="scale(0.95997389,1.041695)"
         inkscape:export-filename="/home/cellarosi/workspace/mercury_booking/booking/mb_media/images/png/title.png"
         inkscape:export-xdpi="500.57437"
         inkscape:export-ydpi="500.57437"><tspan
           sodipodi:role="line"
           id="tspan3845"
           x="160.99506"
           y="92.467247"
           style="line-height:1000%;letter-spacing:-2.60566974px;fill:url(#linearGradient4131);fill-opacity:1;stroke:none">M<tspan
   style="line-height:1000%;letter-spacing:-2.60566974px;word-spacing:0px;fill:url(#linearGradient4131)"
   id="tspan4031"
   rotate="0 0 0 0 0 0 0">ercury</tspan></tspan></text>
      <text
         transform="scale(0.95997389,1.041695)"
         sodipodi:linespacing="109%"
         id="text4033"
         y="94.924782"
         x="407.45462"
         style="font-size:61.4383316px;font-style:normal;font-variant:normal;font-weight:bold;font-stretch:normal;text-align:start;line-height:109.00000334%;letter-spacing:0px;word-spacing:0px;writing-mode:lr-tb;text-anchor:start;fill:url(#linearGradient4041);fill-opacity:1;stroke:none;font-family:Ubuntu;-inkscape-font-specification:Ubuntu Bold"
         xml:space="preserve"
         inkscape:export-filename="/home/cellarosi/workspace/mercury_booking/booking/mb_media/images/png/title.png"
         inkscape:export-xdpi="500.57437"
         inkscape:export-ydpi="500.57437"><tspan
           style="line-height:1000%;letter-spacing:-2.60566974px;fill:url(#linearGradient4041);fill-opacity:1;stroke:none"
           y="94.924782"
           x="407.45462"
           id="tspan4035"
           sodipodi:role="line">Booking</tspan></text>
      <text
         transform="scale(0.95997389,1.041695)"
         sodipodi:linespacing="109%"
         id="text4043"
         y="92.467247"
         x="160.99506"
         style="font-size:61.4383316px;font-style:normal;font-variant:normal;font-weight:bold;font-stretch:normal;text-align:start;line-height:109.00000334%;letter-spacing:0px;word-spacing:0px;writing-mode:lr-tb;text-anchor:start;fill:none;stroke:none;font-family:Ubuntu;-inkscape-font-specification:Ubuntu Bold"
         xml:space="preserve"
         inkscape:export-filename="/home/cellarosi/workspace/mercury_booking/booking/mb_media/images/png/title.png"
         inkscape:export-xdpi="500.57437"
         inkscape:export-ydpi="500.57437"><tspan
           style="line-height:1000%;letter-spacing:-2.60566974px;fill:none;stroke:none"
           y="92.467247"
           x="160.99506"
           id="tspan4045"
           sodipodi:role="line">M<tspan
   rotate="0 0 0 0 0 0 0"
   id="tspan4047"
   style="line-height:1000%;letter-spacing:-2.60566974px;word-spacing:0px;fill:none">ercury</tspan></tspan></text>
      <g
         transform="scale(1.105252,0.90477104)"
         style="font-size:70.73612976px;font-variant:normal;font-weight:bold;font-stretch:normal;text-align:start;writing-mode:lr-tb;text-anchor:start;fill:url(#linearGradient4074);font-family:Ubuntu;-inkscape-font-specification:Ubuntu Bold"
         id="text4068" />
      <text
         sodipodi:linespacing="109%"
         id="text4180"
         y="92.467247"
         x="160.99506"
         style="font-size:61.4383316px;font-style:normal;font-variant:normal;font-weight:bold;font-stretch:normal;text-align:start;line-height:109.00000334%;letter-spacing:0px;word-spacing:0px;writing-mode:lr-tb;text-anchor:start;fill:url(#linearGradient4232);fill-opacity:1;stroke:none;font-family:Ubuntu;-inkscape-font-specification:Ubuntu Bold"
         xml:space="preserve"
         transform="scale(0.95997389,1.041695)"
         inkscape:export-filename="/home/cellarosi/workspace/mercury_booking/booking/mb_media/images/png/title.png"
         inkscape:export-xdpi="500.57437"
         inkscape:export-ydpi="500.57437"><tspan
           style="line-height:1000%;letter-spacing:-2.60566974px;fill:url(#linearGradient4232);fill-opacity:1;stroke:none"
           y="92.467247"
           x="160.99506"
           id="tspan4182"
           sodipodi:role="line">M<tspan
   rotate="0 0 0 0 0 0 0"
   id="tspan4184"
   style="line-height:1000%;letter-spacing:-2.60566974px;word-spacing:0px;fill:url(#linearGradient4232)">ercury</tspan></tspan></text>
      <path
         sodipodi:type="inkscape:offset"
         inkscape:radius="2.3683972"
         inkscape:original="M 83.0625 156.84375 C 82.590918 160.09766 82.14316 163.757 81.71875 167.8125 C 81.341484 171.82091 80.986346 176.02064 80.65625 180.40625 C 80.3733 184.74475 80.095439 189.11438 79.8125 193.5 C 79.576708 197.88565 79.376125 202.0081 79.1875 205.875 L 89.9375 205.875 C 90.078957 201.11211 90.264198 195.92424 90.5 190.3125 C 90.735771 184.70079 91.09091 179.01857 91.5625 173.3125 C 92.411316 175.29314 93.368768 177.50125 94.40625 179.90625 C 95.443693 182.3113 96.447173 184.71999 97.4375 187.125 C 98.47494 189.53004 99.463077 191.84612 100.40625 194.0625 C 101.34937 196.23175 102.15227 198.06881 102.8125 199.625 L 110.53125 199.625 C 111.19142 198.06881 111.99431 196.23175 112.9375 194.0625 C 113.88061 191.84612 114.82215 189.53004 115.8125 187.125 C 116.84992 184.71999 117.89999 182.3113 118.9375 179.90625 C 119.97492 177.50125 120.93237 175.29314 121.78125 173.3125 C 122.25278 179.01857 122.57667 184.70079 122.8125 190.3125 C 123.04824 195.92424 123.26473 201.11211 123.40625 205.875 L 134.15625 205.875 C 133.96756 202.0081 133.72039 197.88565 133.4375 193.5 C 133.20165 189.11438 132.92379 184.74475 132.59375 180.40625 C 132.31075 176.02064 131.95561 171.82091 131.53125 167.8125 C 131.15393 163.757 130.72152 160.09766 130.25 156.84375 L 120.21875 156.84375 C 119.36987 158.39999 118.38173 160.34558 117.25 162.65625 C 116.16534 164.91985 115.0073 167.37457 113.78125 170.0625 C 112.60228 172.70335 111.4289 175.43649 110.25 178.21875 C 109.07103 181.00106 107.94368 183.61034 106.90625 186.0625 C 105.86876 183.61034 104.77266 181.00106 103.59375 178.21875 C 102.41479 175.43649 101.19482 172.70335 99.96875 170.0625 C 98.789791 167.37457 97.631755 164.91985 96.5 162.65625 C 95.415359 160.34558 94.473814 158.39999 93.625 156.84375 L 83.0625 156.84375 z M 156.375 167.65625 C 154.11143 167.65629 151.88797 168.0887 149.71875 168.9375 C 147.59665 169.78637 145.713 171.03703 144.0625 172.6875 C 142.41198 174.33804 141.06871 176.40694 140.03125 178.90625 C 139.04094 181.35846 138.53125 184.23025 138.53125 187.53125 C 138.53125 190.2664 138.90173 192.82964 139.65625 195.1875 C 140.45792 197.54538 141.67789 199.59893 143.28125 201.34375 C 144.93175 203.04142 146.9853 204.3847 149.4375 205.375 C 151.93683 206.36531 154.8393 206.84375 158.1875 206.84375 C 159.50788 206.84375 160.83582 206.79772 162.15625 206.65625 C 163.47663 206.51478 164.71194 206.29829 165.84375 206.0625 C 167.02265 205.87387 168.08807 205.65794 169.03125 205.375 C 169.97436 205.09206 170.71533 204.8142 171.28125 204.53125 L 169.875 195.96875 C 168.69603 196.48749 167.16751 196.93525 165.28125 197.3125 C 163.44208 197.64261 161.55843 197.81251 159.625 197.8125 C 156.6069 197.81251 154.19821 197.14826 152.40625 195.875 C 150.61425 194.60176 149.57952 192.888 149.34375 190.71875 L 173.28125 190.71875 C 173.32837 190.15288 173.35905 189.51988 173.40625 188.8125 C 173.45337 188.058 173.46871 187.36306 173.46875 186.75 C 173.46871 180.47809 171.9402 175.76923 168.875 172.5625 C 165.80974 169.30867 161.6566 167.65629 156.375 167.65625 z M 222.15625 167.65625 C 219.13816 167.65629 216.4516 168.18132 214.09375 169.21875 C 211.73587 170.25625 209.74425 171.6768 208.09375 173.46875 C 206.44323 175.21361 205.17724 177.2825 204.28125 179.6875 C 203.43241 182.04539 203 184.56205 203 187.25 C 203 190.0323 203.35514 192.62623 204.0625 195.03125 C 204.81701 197.38913 205.97505 199.44268 207.53125 201.1875 C 209.13459 202.93233 211.14155 204.33754 213.59375 205.375 C 216.04592 206.36531 218.97965 206.84375 222.375 206.84375 C 224.59137 206.84375 226.62958 206.65851 228.46875 206.28125 C 230.30786 205.90399 231.83638 205.45623 233.0625 204.9375 L 231.5625 196.3125 C 230.33638 196.83124 228.9931 197.20172 227.53125 197.4375 C 226.06934 197.6733 224.71073 197.81251 223.4375 197.8125 C 219.85352 197.81251 217.33686 196.8704 215.875 195.03125 C 214.46026 193.19212 213.74999 190.59819 213.75 187.25 C 213.74999 184.09047 214.49095 181.55848 216 179.625 C 217.55618 177.69157 219.88759 176.71878 223 176.71875 C 224.46186 176.71878 225.78979 176.87333 226.96875 177.15625 C 228.14766 177.43922 229.22841 177.74777 230.21875 178.125 L 232.4375 169.71875 C 230.88127 169.05858 229.27548 168.54889 227.625 168.21875 C 225.97446 167.84153 224.13684 167.65629 222.15625 167.65625 z M 193.90625 167.875 C 190.74669 167.87504 187.84364 168.19949 185.25 168.8125 C 182.70349 169.37843 180.51129 169.96483 178.625 170.625 L 178.625 205.875 L 189.15625 205.875 L 189.15625 177.4375 C 189.62781 177.29606 190.32274 177.15684 191.21875 177.0625 C 192.16188 176.92106 192.96478 176.87503 193.625 176.875 C 195.08686 176.87503 196.44548 176.99833 197.71875 177.28125 C 198.99198 177.51707 200.08808 177.76424 201.03125 178 L 202.8125 169.28125 C 202.24658 169.0455 201.55165 168.86026 200.75 168.71875 C 199.9483 168.53016 199.1454 168.40685 198.34375 168.3125 C 197.54205 168.17107 196.73915 168.07845 195.9375 168.03125 C 195.1358 167.93697 194.47212 167.87504 193.90625 167.875 z M 291.125 167.875 C 287.96544 167.87504 285.09364 168.19949 282.5 168.8125 C 279.95349 169.37843 277.73004 169.96483 275.84375 170.625 L 275.84375 205.875 L 286.40625 205.875 L 286.40625 177.4375 C 286.87781 177.29606 287.54149 177.15684 288.4375 177.0625 C 289.38063 176.92106 290.18353 176.87503 290.84375 176.875 C 292.30561 176.87503 293.69548 176.99833 294.96875 177.28125 C 296.24198 177.51707 297.33808 177.76424 298.28125 178 L 300.0625 169.28125 C 299.49658 169.0455 298.80165 168.86026 298 168.71875 C 297.1983 168.53016 296.3954 168.40685 295.59375 168.3125 C 294.79205 168.17107 293.98915 168.07845 293.1875 168.03125 C 292.3858 167.93697 291.69087 167.87504 291.125 167.875 z M 236.78125 168.65625 L 236.78125 189.375 C 236.78125 191.92151 237.04376 194.25293 237.5625 196.375 C 238.08123 198.49709 238.9614 200.35006 240.1875 201.90625 C 241.41358 203.41529 243.05006 204.58867 245.125 205.4375 C 247.24707 206.28633 249.90294 206.71875 253.0625 206.71875 C 256.17487 206.71875 259.13928 206.47157 261.96875 206 C 264.79816 205.57558 267.11423 205.11248 268.90625 204.59375 L 268.90625 168.65625 L 258.34375 168.65625 L 258.34375 197.375 C 257.68352 197.46932 256.94256 197.56194 256.09375 197.65625 C 255.24489 197.70342 254.442 197.71876 253.6875 197.71875 C 251.2353 197.71876 249.55222 196.9778 248.65625 195.46875 C 247.76024 193.95972 247.31248 191.4891 247.3125 188.09375 L 247.3125 168.65625 L 236.78125 168.65625 z M 300.65625 168.65625 C 302.77833 175.96568 305.06372 182.5741 307.46875 188.46875 C 309.87377 194.31628 312.25121 199.59676 314.65625 204.3125 C 313.94887 206.10448 313.09995 207.47844 312.0625 208.46875 C 311.07218 209.50621 309.63629 210.03125 307.75 210.03125 C 306.80684 210.03125 305.91133 209.95397 305.0625 209.8125 C 304.21366 209.67102 303.24087 209.43976 302.15625 209.0625 L 300.3125 217.46875 C 301.20849 217.846 302.35118 218.18579 303.71875 218.46875 C 305.13347 218.79884 306.66198 218.93749 308.3125 218.9375 C 310.2931 218.93749 312.00686 218.72156 313.46875 218.25 C 314.97777 217.82557 316.32105 217.11529 317.5 216.125 C 318.67892 215.18184 319.75967 213.94653 320.75 212.4375 C 321.74028 210.97561 322.72842 209.18458 323.71875 207.0625 C 326.45385 201.16783 328.97051 195.08445 331.28125 188.8125 C 333.59193 182.54059 335.81538 175.82421 337.9375 168.65625 L 327.0625 168.65625 C 326.5909 170.49542 326.01927 172.48704 325.40625 174.65625 C 324.84034 176.77836 324.25393 178.97113 323.59375 181.1875 C 322.98068 183.35676 322.34768 185.45634 321.6875 187.53125 C 321.02728 189.60619 320.36303 191.48985 319.75 193.1875 C 319.08978 191.48985 318.41075 189.60619 317.65625 187.53125 C 316.94887 185.45634 316.2386 183.35676 315.53125 181.1875 C 314.82387 178.97113 314.12894 176.77836 313.46875 174.65625 C 312.85569 172.48704 312.31531 170.49542 311.84375 168.65625 L 300.65625 168.65625 z M 156.5 176.375 C 157.72607 176.37503 158.72955 176.57561 159.53125 177 C 160.38006 177.42445 161.07499 177.96482 161.59375 178.625 C 162.15961 179.28523 162.57669 180.05744 162.8125 180.90625 C 163.09542 181.75511 163.23406 182.60403 163.28125 183.5 L 149.34375 183.5 C 149.48521 182.60403 149.71704 181.75511 150 180.90625 C 150.33009 180.01028 150.77785 179.22273 151.34375 178.5625 C 151.90962 177.90232 152.6199 177.37729 153.46875 177 C 154.31756 176.57561 155.32104 176.37503 156.5 176.375 z "
         style="font-size:70.73612975999999719px;font-style:normal;font-variant:normal;font-weight:bold;font-stretch:normal;text-align:start;line-height:109.00000334000000635%;letter-spacing:0px;word-spacing:0px;writing-mode:lr-tb;text-anchor:start;fill:none;stroke:#c1bfc0;stroke-width:1.49673611000000006;stroke-miterlimit:4;stroke-opacity:1;stroke-dasharray:none;font-family:Ubuntu;-inkscape-font-specification:Ubuntu Bold;filter:url(#filter3873)"
         id="path4228"
         d="M 83.0625,154.46875 A 2.3686341,2.3686341 0 0 0 80.71875,156.5 c -0.477211,3.29275 -0.916742,6.98218 -1.34375,11.0625 a 2.3686341,2.3686341 0 0 0 0,0.0312 c -0.378734,4.02401 -0.762605,8.22546 -1.09375,12.625 a 2.3686341,2.3686341 0 0 0 0,0.0312 c -0.283118,4.34107 -0.560904,8.70958 -0.84375,13.09375 a 2.3686341,2.3686341 0 0 0 0,0.0312 c -0.236198,4.3932 -0.436385,8.50831 -0.625,12.375 a 2.3686341,2.3686341 0 0 0 2.375,2.5 l 10.75,0 a 2.3686341,2.3686341 0 0 0 2.375,-2.3125 c 0.141151,-4.75257 0.327084,-9.9287 0.5625,-15.53125 0.09662,-2.29967 0.300733,-4.64809 0.4375,-6.96875 0.645413,1.52942 1.306135,3.06048 1.9375,4.59375 a 2.3686341,2.3686341 0 0 0 0,0.0312 c 1.035044,2.39949 2.026176,4.72253 2.96875,6.9375 0.944146,2.17161 1.753915,4.02492 2.40625,5.5625 A 2.3686341,2.3686341 0 0 0 102.8125,202 l 7.71875,0 a 2.3686341,2.3686341 0 0 0 2.1875,-1.4375 c 0.65226,-1.53753 1.46205,-3.39093 2.40625,-5.5625 0.94985,-2.23221 1.89137,-4.54855 2.875,-6.9375 0.004,-0.009 -0.004,-0.0221 0,-0.0312 0.66307,-1.53705 1.33127,-3.08228 2,-4.625 0.13137,2.33197 0.34026,4.68616 0.4375,7 0.23572,5.61133 0.45284,10.789 0.59375,15.53125 a 2.3686341,2.3686341 0 0 0 2.375,2.3125 l 10.75,0 a 2.3686341,2.3686341 0 0 0 2.375,-2.5 c -0.18913,-3.87587 -0.43632,-7.99496 -0.71875,-12.375 -5.6e-4,-0.0104 5.6e-4,-0.0208 0,-0.0312 -0.23576,-4.3801 -0.51403,-8.75605 -0.84375,-13.09375 -7e-4,-0.0108 7e-4,-0.0205 0,-0.0312 -0.2839,-4.39323 -0.66816,-8.60078 -1.09375,-12.625 -0.001,-0.0114 0.001,-0.0199 0,-0.0312 -0.37986,-4.07729 -0.80439,-7.77173 -1.28125,-11.0625 A 2.3686341,2.3686341 0 0 0 130.25,154.46875 l -10.03125,0 a 2.3686341,2.3686341 0 0 0 -2.09375,1.25 c -0.87626,1.60643 -1.85973,3.57815 -3,5.90625 -1.08912,2.27291 -2.26621,4.76385 -3.5,7.46875 -1.18848,2.66215 -2.38073,5.39847 -3.5625,8.1875 -0.40313,0.95136 -0.76589,1.77404 -1.15625,2.6875 -0.38523,-0.91276 -0.721,-1.73403 -1.125,-2.6875 -1.19057,-2.80965 -2.42004,-5.55606 -3.65625,-8.21875 l -0.0312,0 c -1.17463,-2.67495 -2.307353,-5.14354 -3.4375,-7.40625 -0.01151,-0.0245 -0.01977,-0.038 -0.03125,-0.0625 -1.077013,-2.29321 -2.022069,-4.25392 -2.90625,-5.875 a 2.3686341,2.3686341 0 0 0 -2.09375,-1.25 l -10.5625,0 z m 73.3125,10.8125 c -2.56517,5e-5 -5.10479,0.48804 -7.53125,1.4375 a 2.3686341,2.3686341 0 0 0 0,0.0312 c -2.41818,0.96731 -4.60416,2.38545 -6.46875,4.25 -1.89593,1.89595 -3.3937,4.25956 -4.53125,7 a 2.3686341,2.3686341 0 0 0 0,0.0312 c -1.12507,2.7859 -1.6875,5.95521 -1.6875,9.5 0,2.94902 0.41221,5.75693 1.25,8.375 a 2.3686341,2.3686341 0 0 0 0,0.0312 c 0.90249,2.6544 2.30018,5.01419 4.125,7 a 2.3686341,2.3686341 0 0 0 0.0625,0.0625 c 1.89967,1.95396 4.25272,3.46565 6.96875,4.5625 2.84025,1.12539 6.05118,1.65625 9.625,1.65625 1.37542,0 2.78519,-0.0652 4.21875,-0.21875 1.3843,-0.14832 2.65026,-0.3537 3.8125,-0.59375 0.034,-0.005 0.0599,-0.0258 0.0937,-0.0312 1.19946,-0.19438 2.34061,-0.39907 3.40625,-0.71875 1.02485,-0.30746 1.87419,-0.62461 2.625,-1 a 2.3686341,2.3686341 0 0 0 1.28125,-2.5 l -1.40625,-8.5625 a 2.3686341,2.3686341 0 0 0 -3.3125,-1.78125 c -0.93283,0.41044 -2.29816,0.80518 -4.03125,1.15625 -1.70148,0.3054 -3.45533,0.46876 -5.25,0.46875 -2.67059,1e-5 -4.55162,-0.58189 -5.84375,-1.5 -0.36962,-0.26262 -0.551,-0.56358 -0.8125,-0.84375 l 20.3125,0 a 2.3686341,2.3686341 0 0 0 2.375,-2.1875 c 0.0522,-0.62671 0.0795,-1.25574 0.125,-1.9375 0.0508,-0.81288 0.0625,-1.5663 0.0625,-2.21875 -4e-5,-6.6567 -1.65633,-12.0529 -5.25,-15.8125 -3.523,-3.73973 -8.44318,-5.65621 -14.21875,-5.65625 z m 65.78125,0 c -3.29274,4e-5 -6.336,0.59537 -9.03125,1.78125 -2.62336,1.15432 -4.88446,2.76483 -6.75,4.78125 -0.01,0.0107 -0.0213,0.0205 -0.0312,0.0312 -0.84494,0.89729 -1.58415,1.89276 -2.25,2.9375 L 205.125,169.75 a 2.3686341,2.3686341 0 0 0 -1.40625,-2.65625 c -0.75626,-0.31504 -1.56922,-0.52805 -2.4375,-0.6875 -0.0439,-0.0103 -0.0812,-0.0213 -0.125,-0.0312 -0.83059,-0.18903 -1.62767,-0.28066 -2.40625,-0.375 l 0,-0.0312 c -0.041,-0.007 -0.084,0.007 -0.125,0 -0.80042,-0.13672 -1.60852,-0.22897 -2.40625,-0.28125 -0.0523,-0.003 -0.10398,-0.0282 -0.15625,-0.0312 l 0,0.0312 c -0.76523,-0.0882 -1.46728,-0.18745 -2.15625,-0.1875 -3.31016,4e-5 -6.36739,0.34354 -9.15625,1 -0.01,0.002 -0.0215,-0.002 -0.0312,0 -2.59001,0.57644 -4.86992,1.17325 -6.875,1.875 a 2.3686341,2.3686341 0 0 0 -1.59375,2.25 l 0,35.25 a 2.3686341,2.3686341 0 0 0 2.375,2.375 l 10.53125,0 a 2.3686341,2.3686341 0 0 0 2.375,-2.375 l 0,-26.46875 a 2.3686341,2.3686341 0 0 0 0.0312,0 c 0.82269,-0.12338 1.51227,-0.15622 2.0625,-0.15625 1.32872,3e-5 2.52649,0.10661 3.59375,0.34375 a 2.3686341,2.3686341 0 0 0 0.0625,0.0312 c 1.22117,0.22618 2.28532,0.46199 3.1875,0.6875 a 2.3686341,2.3686341 0 0 0 1.21875,-0.0625 c -0.65201,2.22655 -1.0625,4.55728 -1.0625,7 0,2.98384 0.37936,5.79609 1.15625,8.4375 a 2.3686341,2.3686341 0 0 0 0.0312,0.0625 c 0.84724,2.64768 2.15535,5.00185 3.9375,7 a 2.3686341,2.3686341 0 0 0 0.0312,0.0312 c 1.84093,2.00339 4.14309,3.62545 6.875,4.78125 a 2.3686341,2.3686341 0 0 0 0.0625,0 c 2.81475,1.13674 6.03841,1.65625 9.65625,1.65625 2.34833,0 4.53541,-0.20919 6.5625,-0.625 1.94743,-0.39948 3.6363,-0.86537 5.0625,-1.46875 a 2.3686341,2.3686341 0 0 0 1.40625,-2.59375 l -1.5,-8.625 A 2.3686341,2.3686341 0 0 0 230.625,194.125 c -1.02712,0.43455 -2.16677,0.75875 -3.46875,0.96875 -1.37885,0.2224 -2.61817,0.34376 -3.71875,0.34375 -3.14041,1e-5 -4.79846,-0.74871 -5.6875,-1.84375 -0.008,-0.01 -0.0233,-0.0213 -0.0312,-0.0312 -0.97957,-1.29115 -1.59376,-3.32166 -1.59375,-6.3125 -1e-5,-2.76887 0.61082,-4.68893 1.71875,-6.125 0.009,-0.0116 0.0218,-0.0197 0.0312,-0.0312 1.07239,-1.31283 2.52885,-1.99997 5.125,-2 1.29496,3e-5 2.42938,0.14058 3.40625,0.375 1.1184,0.26845 2.11258,0.54888 2.96875,0.875 a 2.3686341,2.3686341 0 0 0 3.125,-1.625 l 1.90625,-7.21875 0,17.875 c 0,2.70928 0.27376,5.23077 0.84375,7.5625 0.58995,2.41346 1.61179,4.59623 3.0625,6.4375 a 2.3686341,2.3686341 0 0 0 0.0312,0.0312 c 1.49757,1.84319 3.49603,3.24555 5.875,4.21875 a 2.3686341,2.3686341 0 0 0 0.0312,0 c 2.49722,0.99889 5.43685,1.46875 8.8125,1.46875 3.22694,0 6.29732,-0.25962 9.25,-0.75 0.012,-0.002 0.0193,0.002 0.0312,0 2.87581,-0.43232 5.27292,-0.9055 7.21875,-1.46875 a 2.3686341,2.3686341 0 0 0 1.71875,-2.28125 l 0,-35.9375 a 2.3686341,2.3686341 0 0 0 -2.375,-2.375 l -10.5625,0 a 2.3686341,2.3686341 0 0 0 -2.375,2.375 l 0,26.625 c -0.79466,0.0442 -1.55887,0.0625 -2.28125,0.0625 -1.9751,1e-5 -2.595,-0.41163 -3,-1.09375 -0.49347,-0.83108 -1.00002,-2.96913 -1,-6.15625 l 0,-19.4375 a 2.3686341,2.3686341 0 0 0 -2.375,-2.375 l -10.53125,0 a 2.3686341,2.3686341 0 0 0 -2.375,2.125 2.3686341,2.3686341 0 0 0 -1.03125,-0.875 c -1.67088,-0.70881 -3.42245,-1.22932 -5.21875,-1.59375 -0.003,-6.1e-4 0.003,-0.0306 0,-0.0312 -0.0191,-0.004 -0.0433,0.004 -0.0625,0 -1.84251,-0.41575 -3.8312,-0.62496 -5.9375,-0.625 z M 291.125,165.5 c -3.31016,4e-5 -6.34043,0.3445 -9.125,1 -0.01,0.002 -0.0216,-0.002 -0.0312,0 -2.58634,0.57555 -4.89347,1.17056 -6.90625,1.875 a 2.3686341,2.3686341 0 0 0 -1.59375,2.25 l 0,35.25 a 2.3686341,2.3686341 0 0 0 2.375,2.375 l 10.5625,0 a 2.3686341,2.3686341 0 0 0 2.375,-2.375 l 0,-26.46875 c 0.82269,-0.12338 1.51227,-0.15622 2.0625,-0.15625 1.32872,3e-5 2.56575,0.10839 3.625,0.34375 a 2.3686341,2.3686341 0 0 0 0.0625,0.0312 c 1.22117,0.22618 2.28532,0.46199 3.1875,0.6875 a 2.3686341,2.3686341 0 0 0 2.875,-1.84375 l 0.28125,-1.3125 c 1.42179,4.31282 2.87237,8.45925 4.40625,12.21875 2.24364,5.45514 4.4619,10.30182 6.71875,14.8125 -0.50281,1.04005 -1.01194,2.03696 -1.5625,2.5625 a 2.3686341,2.3686341 0 0 0 -0.0937,0.0937 c -0.47638,0.49905 -1.14695,0.8125 -2.59375,0.8125 -0.81379,0 -1.59215,-0.0674 -2.3125,-0.1875 -0.72545,-0.12091 -1.54675,-0.32468 -2.5,-0.65625 a 2.3686341,2.3686341 0 0 0 -3.09375,1.75 L 298,216.96875 a 2.3686341,2.3686341 0 0 0 1.40625,2.6875 c 1.07223,0.45146 2.33393,0.79067 3.78125,1.09375 l 0,0.0312 c 0.0221,0.005 0.0403,-0.005 0.0625,0 1.6213,0.37233 3.30087,0.53124 5.0625,0.53125 2.13026,-1e-5 4.05179,-0.25283 5.8125,-0.8125 l 0,0.0312 c 0.0227,-0.006 0.0399,-0.0248 0.0625,-0.0312 1.77027,-0.50789 3.3809,-1.36755 4.78125,-2.53125 0.0178,-0.0148 0.0448,-0.0163 0.0625,-0.0312 L 319,217.90625 c 1.38313,-1.11688 2.60841,-2.48768 3.6875,-4.125 l 0.0312,0 c 0.005,-0.007 -0.005,-0.0243 0,-0.0312 1.07885,-1.59563 2.13088,-3.49034 3.15625,-5.6875 2.76349,-5.95585 5.29316,-12.10827 7.625,-18.4375 2.32991,-6.32411 4.58312,-13.06765 6.71875,-20.28125 a 2.3686341,2.3686341 0 0 0 -2.28125,-3.0625 l -10.875,0 a 2.3686341,2.3686341 0 0 0 -2.28125,1.78125 c -0.45941,1.79162 -1.04162,3.76258 -1.65625,5.9375 a 2.3686341,2.3686341 0 0 0 0,0.0312 c -0.56561,2.121 -1.16479,4.29423 -1.8125,6.46875 a 2.3686341,2.3686341 0 0 0 0,0.0312 c -0.53361,1.88809 -1.08688,3.71863 -1.65625,5.53125 -0.62554,-1.83885 -1.25309,-3.68653 -1.875,-5.59375 -0.6993,-2.19104 -1.37955,-4.37474 -2.03125,-6.46875 -0.007,-0.024 -0.0245,-0.0386 -0.0312,-0.0625 -0.60054,-2.12665 -1.13332,-4.07925 -1.59375,-5.875 a 2.3686341,2.3686341 0 0 0 -2.28125,-1.78125 l -11.1875,0 a 2.3686341,2.3686341 0 0 0 -1.28125,0.375 c -0.28685,-0.0699 -0.54208,-0.1946 -0.84375,-0.25 -0.0439,-0.0103 -0.0812,-0.0213 -0.125,-0.0312 C 297.57566,166.18597 296.77858,166.09434 296,166 l 0,-0.0312 c -0.041,-0.007 -0.084,0.007 -0.125,0 -0.80042,-0.13672 -1.60852,-0.22897 -2.40625,-0.28125 -0.0523,-0.003 -0.10398,-0.0282 -0.15625,-0.0312 l 0,0.0312 c -0.77467,-0.0889 -1.49789,-0.18745 -2.1875,-0.1875 z M 156.5,178.75 c 0.96779,2e-5 1.58533,0.15732 1.9375,0.34375 a 2.3686341,2.3686341 0 0 0 0.0312,0.0312 c 0.59211,0.29609 0.9782,0.62285 1.25,0.96875 a 2.3686341,2.3686341 0 0 0 0.0625,0.0625 c 0.24426,0.28499 0.38784,0.63005 0.53125,0.96875 l -7.75,0 c 0.1852,-0.36257 0.36414,-0.76337 0.59375,-1.03125 0.33235,-0.38775 0.72951,-0.69227 1.28125,-0.9375 a 2.3686341,2.3686341 0 0 0 0.0937,-0.0312 c 0.44797,-0.22398 1.05838,-0.37498 1.96875,-0.375 z"
         transform="matrix(0.83379165,0,0,0.90477104,92.064717,-89.931327)"
         inkscape:export-filename="/home/cellarosi/workspace/mercury_booking/booking/mb_media/images/png/title.png"
         inkscape:export-xdpi="500.57437"
         inkscape:export-ydpi="500.57437" />
      <path
         sodipodi:type="inkscape:offset"
         inkscape:radius="1.6428163"
         inkscape:original="M 214.8125 149.34375 A 1.61033 1.61033 0 0 0 214.625 149.375 L 204.09375 151.0625 A 1.61033 1.61033 0 0 0 202.71875 152.65625 L 202.71875 205.875 A 1.61033 1.61033 0 0 0 204.34375 207.5 L 214.875 207.5 A 1.61033 1.61033 0 0 0 216.5 205.875 L 216.5 193.40625 C 216.74368 193.6681 216.97612 193.84356 217.21875 194.125 A 1.61033 1.61033 0 0 0 217.25 194.125 C 218.43852 195.45069 219.54359 196.85145 220.59375 198.3125 A 1.61033 1.61033 0 0 0 220.625 198.34375 C 221.67918 199.76464 222.63758 201.20767 223.5625 202.6875 A 1.61033 1.61033 0 0 0 223.59375 202.75 C 224.57563 204.19947 225.45076 205.52159 226.1875 206.71875 A 1.61033 1.61033 0 0 0 227.5625 207.5 L 239.65625 207.5 A 1.61033 1.61033 0 0 0 240.9375 206.8125 A 1.61033 1.61033 0 0 0 242.25 207.5 L 252.78125 207.5 A 1.61033 1.61033 0 0 0 254.40625 205.875 L 254.40625 168.65625 A 1.61033 1.61033 0 0 0 252.78125 167.03125 L 242.25 167.03125 A 1.61033 1.61033 0 0 0 240.6875 168.1875 A 1.61033 1.61033 0 0 0 239.15625 167.03125 L 226.625 167.03125 A 1.61033 1.61033 0 0 0 225.375 167.625 C 224.72208 168.41783 223.93215 169.36553 223 170.4375 A 1.61033 1.61033 0 0 0 222.96875 170.46875 C 222.09318 171.52866 221.1312 172.64917 220.09375 173.875 C 220.08817 173.88159 220.09933 173.89965 220.09375 173.90625 C 219.06335 175.0771 217.98682 176.26429 216.875 177.46875 A 1.61033 1.61033 0 0 0 216.84375 177.5 C 216.72764 177.63125 216.6157 177.74489 216.5 177.875 L 216.5 150.96875 A 1.61033 1.61033 0 0 0 214.8125 149.34375 z M 247.46875 150.0625 C 245.41971 150.06256 243.50525 150.79053 241.96875 152.15625 C 240.38702 153.55553 239.5625 155.62992 239.5625 157.90625 C 239.5625 160.18266 240.37847 162.24847 241.9375 163.6875 A 1.61033 1.61033 0 0 0 242 163.71875 C 243.53691 165.02802 245.42936 165.75005 247.46875 165.75 C 249.50812 165.75005 251.42775 165.05433 252.9375 163.71875 C 254.55073 162.2848 255.40623 160.19117 255.40625 157.90625 C 255.40623 155.64637 254.53779 153.61151 252.9375 152.21875 L 252.96875 152.1875 C 252.95125 152.17135 252.92386 152.17222 252.90625 152.15625 C 251.40548 150.7955 249.49401 150.06256 247.46875 150.0625 z M 95.53125 154.65625 C 93.180004 154.6563 90.625574 154.79368 87.90625 155.03125 C 87.895132 155.03222 87.886124 155.03027 87.875 155.03125 C 85.140332 155.22444 82.630383 155.53419 80.3125 155.96875 A 1.61033 1.61033 0 0 0 78.96875 157.5625 L 78.96875 205.09375 A 1.61033 1.61033 0 0 0 80.25 206.65625 C 83.192267 207.2833 86.028141 207.66504 88.75 207.8125 C 88.759826 207.81303 88.771427 207.81197 88.78125 207.8125 C 91.496825 208.00233 94.222906 208.125 96.9375 208.125 C 104.52697 208.125 110.39352 206.81817 114.53125 203.9375 C 118.71715 201.05967 120.90621 196.53354 120.90625 191 C 120.90621 188.21927 120.27157 185.65335 119 183.375 C 118.00019 181.58375 116.23541 180.23448 114.15625 179.09375 C 116.90548 176.71538 118.49996 173.63768 118.5 170.0625 C 118.49996 167.26099 117.91434 164.79099 116.65625 162.75 C 116.64886 162.73724 116.63243 162.73148 116.625 162.71875 C 115.44927 160.70359 113.78347 159.04901 111.6875 157.84375 C 109.60322 156.64537 107.15088 155.85543 104.375 155.40625 C 104.36552 155.40453 104.35323 155.40797 104.34375 155.40625 C 101.65053 154.91861 98.717634 154.6563 95.53125 154.65625 z M 140.96875 166.03125 C 138.12699 166.03129 135.45826 166.56951 133 167.59375 A 1.61033 1.61033 0 0 0 133 167.625 C 130.60672 168.64345 128.46194 170.04899 126.65625 171.90625 A 1.61033 1.61033 0 0 0 126.65625 171.9375 C 124.89836 173.79883 123.5082 176.02284 122.5 178.59375 A 1.61033 1.61033 0 0 0 122.5 178.625 C 121.52911 181.23109 121.03125 184.09937 121.03125 187.1875 C 121.03125 190.27567 121.53325 193.16668 122.5 195.8125 C 123.46165 198.39379 124.81233 200.65791 126.5625 202.5625 A 1.61033 1.61033 0 0 0 126.59375 202.5625 C 128.34507 204.41685 130.43119 205.87963 132.84375 206.90625 A 1.61033 1.61033 0 0 0 132.84375 206.9375 C 135.3233 207.97065 138.05185 208.46875 140.96875 208.46875 C 143.92968 208.46875 146.65045 207.94594 149.09375 206.90625 L 149.09375 206.9375 C 151.5502 205.91396 153.67545 204.42816 155.4375 202.5625 A 1.61033 1.61033 0 0 0 155.46875 202.5625 C 157.22939 200.64648 158.55729 198.36363 159.46875 195.78125 C 160.38115 193.1453 160.84371 190.27003 160.84375 187.1875 C 160.84371 184.09938 160.34584 181.23108 159.375 178.625 C 158.41253 176.04167 157.04262 173.80255 155.28125 171.9375 C 153.51244 170.06473 151.3823 168.61246 148.9375 167.59375 L 148.9375 167.625 C 146.51595 166.59461 143.85411 166.03129 140.96875 166.03125 z M 180.9375 166.03125 C 178.09574 166.03129 175.42701 166.56951 172.96875 167.59375 A 1.61033 1.61033 0 0 0 172.96875 167.625 C 170.57547 168.64345 168.43069 170.04899 166.625 171.90625 A 1.61033 1.61033 0 0 0 166.625 171.9375 C 164.86711 173.79883 163.47695 176.02284 162.46875 178.59375 A 1.61033 1.61033 0 0 0 162.46875 178.625 C 161.49786 181.23109 161 184.09937 161 187.1875 C 161 190.27567 161.502 193.16668 162.46875 195.8125 C 163.4304 198.39379 164.78108 200.65791 166.53125 202.5625 A 1.61033 1.61033 0 0 0 166.5625 202.5625 C 168.31382 204.41685 170.39994 205.87963 172.8125 206.90625 A 1.61033 1.61033 0 0 0 172.8125 206.9375 C 175.29205 207.97065 178.0206 208.46875 180.9375 208.46875 C 183.89843 208.46875 186.6192 207.94594 189.0625 206.90625 L 189.0625 206.9375 C 191.52381 205.91194 193.62012 204.42056 195.375 202.5625 A 1.61033 1.61033 0 0 0 195.40625 202.5625 C 197.15984 200.65415 198.52191 198.37532 199.4375 195.78125 C 200.3499 193.1453 200.81246 190.27003 200.8125 187.1875 C 200.81246 184.09938 200.31459 181.23108 199.34375 178.625 C 198.38128 176.04167 197.01137 173.80255 195.25 171.9375 C 193.48119 170.06473 191.35105 168.61246 188.90625 167.59375 L 188.90625 167.625 C 186.4847 166.59461 183.82286 166.03129 180.9375 166.03125 z M 275.53125 166.1875 C 272.34438 166.18754 269.3057 166.41783 266.375 166.90625 C 263.49164 167.33879 261.13545 167.86049 259.25 168.40625 A 1.61033 1.61033 0 0 0 258.0625 169.9375 L 258.0625 205.875 A 1.61033 1.61033 0 0 0 259.6875 207.5 L 270.21875 207.5 A 1.61033 1.61033 0 0 0 271.84375 205.875 L 271.84375 178.59375 C 272.10317 178.57193 272.31404 178.5468 272.59375 178.53125 A 1.61033 1.61033 0 0 0 272.6875 178.53125 C 273.50246 178.44072 274.23977 178.40628 274.90625 178.40625 C 277.04749 178.40628 278.02382 178.93075 278.5625 179.78125 C 279.14621 180.70295 279.65622 182.87125 279.65625 186.125 L 279.65625 205.875 A 1.61033 1.61033 0 0 0 281.28125 207.5 L 291.8125 207.5 A 1.61033 1.61033 0 0 0 293.4375 205.875 L 293.4375 184.84375 C 293.43746 182.18662 293.14888 179.78324 292.59375 177.5625 C 292.02392 175.28336 291.03766 173.26278 289.65625 171.5625 C 288.24337 169.82367 286.30822 168.50823 284 167.625 L 284 167.59375 C 283.98248 167.58658 283.95507 167.60086 283.9375 167.59375 C 281.61252 166.65316 278.81287 166.18754 275.53125 166.1875 z M 315.59375 166.1875 C 312.47227 166.18754 309.65094 166.68889 307.09375 167.65625 C 307.08455 167.65973 307.0717 167.65276 307.0625 167.65625 C 304.52369 168.57418 302.28789 169.92036 300.46875 171.6875 A 1.61033 1.61033 0 0 0 300.46875 171.71875 C 298.70467 173.48285 297.33062 175.59754 296.40625 178.0625 C 295.47419 180.49622 295.03125 183.16995 295.03125 186.0625 C 295.03125 191.79939 296.50833 196.51474 299.5625 199.9375 A 1.61033 1.61033 0 0 0 299.5625 199.96875 C 302.63782 203.36223 307.11285 205 312.5625 205 C 314.05912 205 315.44372 204.88625 316.75 204.625 A 1.61033 1.61033 0 0 0 316.8125 204.59375 C 317.29301 204.48286 317.74231 204.26837 318.21875 204.125 C 318.06061 205.34269 317.71246 206.35257 316.9375 207.15625 A 1.61033 1.61033 0 0 0 316.90625 207.1875 C 316.13425 208.01886 314.5062 208.625 311.71875 208.625 C 309.50576 208.625 307.54535 208.47172 305.84375 208.125 C 305.83388 208.12292 305.82237 208.12709 305.8125 208.125 C 304.11942 207.76683 302.45767 207.24557 300.90625 206.625 A 1.61033 1.61033 0 0 0 298.75 207.8125 L 296.9375 216.65625 A 1.61033 1.61033 0 0 0 297.96875 218.5 C 299.98095 219.18708 302.16764 219.73462 304.5 220.125 C 304.51051 220.12676 304.52073 220.12325 304.53125 220.125 C 306.88434 220.56416 309.21416 220.78124 311.5625 220.78125 C 318.24671 220.78124 323.49191 219.25484 326.96875 215.90625 C 326.97916 215.89623 326.98962 215.88506 327 215.875 C 330.50085 212.56521 332.15621 207.52404 332.15625 201.1875 L 332.15625 169.9375 A 1.61033 1.61033 0 0 0 331 168.40625 C 330.01468 168.1107 328.89762 167.83466 327.65625 167.59375 C 327.63165 167.58898 327.61845 167.56725 327.59375 167.5625 L 327.59375 167.59375 C 326.387 167.30585 325.10317 167.03711 323.75 166.84375 C 322.38582 166.64891 321.03709 166.53323 319.65625 166.4375 C 319.64574 166.43637 319.63551 166.43862 319.625 166.4375 C 318.26452 166.29278 316.92184 166.18754 315.59375 166.1875 z M 97.28125 166.8125 C 100.05186 166.81254 102.05279 167.24097 103.1875 167.84375 C 104.22437 168.39462 104.59373 169.00045 104.59375 170.5625 C 104.59373 172.05449 104.1828 172.78293 103.1875 173.40625 C 102.18865 173.98624 99.977341 174.46878 96.71875 174.46875 L 92.96875 174.46875 L 92.96875 166.9375 C 93.401043 166.91456 93.767658 166.87502 94.25 166.875 A 1.61033 1.61033 0 0 0 94.3125 166.84375 C 95.369214 166.79784 96.35549 166.81254 97.28125 166.8125 z M 240.625 169.3125 L 240.625 204.3125 C 239.87946 202.91271 239.0786 201.46956 238.0625 199.84375 C 236.85419 197.91052 235.49907 195.97798 234.0625 194.0625 C 232.63162 192.15471 231.15388 190.33121 229.625 188.5625 C 229.61969 188.55619 229.63031 188.53755 229.625 188.53125 L 229.59375 188.53125 C 228.44738 187.17234 227.32756 186.10737 226.21875 185.03125 C 228.61529 182.64188 230.91855 180.28646 232.96875 178.03125 C 235.38069 175.38284 237.86596 172.60651 240.375 169.71875 A 1.61033 1.61033 0 0 0 240.625 169.3125 z M 315.6875 177.90625 C 316.56017 177.90628 317.29977 177.94625 317.9375 178.03125 A 1.61033 1.61033 0 0 0 318.0625 178.03125 C 318.18519 178.03944 318.25898 178.05249 318.375 178.0625 L 318.375 192.4375 C 317.98117 192.60515 317.65387 192.77884 317.125 192.9375 C 316.33773 193.17369 315.46288 193.28126 314.53125 193.28125 C 312.48211 193.28125 311.29414 192.75234 310.4375 191.6875 C 309.58086 190.62266 309.03125 188.79477 309.03125 186.0625 C 309.03124 183.48487 309.59112 181.54771 310.71875 180.03125 C 311.77241 178.61427 313.26866 177.90628 315.6875 177.90625 z M 140.96875 178.34375 C 142.94641 178.34377 144.1469 178.97348 145.15625 180.46875 A 1.61033 1.61033 0 0 0 145.1875 180.5 C 146.2452 181.97328 146.84372 184.14754 146.84375 187.1875 C 146.84372 190.2275 146.23682 192.48022 145.15625 194.0625 C 144.1469 195.55781 142.9464 196.18751 140.96875 196.1875 C 139.00882 196.18751 137.77049 195.54493 136.71875 194.0625 C 136.70921 194.04905 136.69701 194.04484 136.6875 194.03125 C 135.62002 192.45061 135.03124 190.20777 135.03125 187.1875 C 135.03124 184.14755 135.62977 181.97327 136.6875 180.5 C 137.74548 178.98861 138.99103 178.34377 140.96875 178.34375 z M 180.9375 178.34375 C 182.91516 178.34377 184.07757 178.96335 185.09375 180.46875 A 1.61033 1.61033 0 0 0 185.125 180.5 C 186.18972 181.98305 186.81247 184.15785 186.8125 187.1875 C 186.81247 190.21719 186.18099 192.47044 185.09375 194.0625 C 184.07757 195.56793 182.91515 196.18751 180.9375 196.1875 C 178.97757 196.18751 177.73924 195.54493 176.6875 194.0625 C 176.67796 194.04905 176.66576 194.04484 176.65625 194.03125 C 175.58877 192.45061 174.99999 190.20777 175 187.1875 C 174.99999 184.14755 175.59852 181.97327 176.65625 180.5 C 177.71423 178.98861 178.95978 178.34377 180.9375 178.34375 z M 92.96875 186.125 L 98.28125 186.125 C 101.2676 186.12502 103.4208 186.63092 104.75 187.40625 A 1.61033 1.61033 0 0 0 104.78125 187.40625 C 106.00359 188.08536 106.49998 188.95909 106.5 190.8125 C 106.49998 192.92284 105.91031 193.8484 104.375 194.5625 C 102.649 195.36529 100.24414 195.81251 97.09375 195.8125 C 95.976509 195.81251 94.96347 195.82631 94.0625 195.78125 C 93.671288 195.76169 93.335917 195.71682 92.96875 195.6875 L 92.96875 186.125 z "
         style="font-size:70.73612975999999719px;font-style:normal;font-variant:normal;font-weight:bold;font-stretch:normal;text-align:start;line-height:109.00000334000000635%;letter-spacing:0px;word-spacing:0px;writing-mode:lr-tb;text-anchor:start;fill:none;stroke:#c1bfc0;stroke-width:1.49673611000000006;stroke-miterlimit:4;stroke-opacity:1;stroke-dasharray:none;font-family:Ubuntu;-inkscape-font-specification:Ubuntu Bold;filter:url(#filter3877)"
         id="path4234"
         d="m 214.71875,147.6875 c -0.1476,0.0691 -0.61967,0.15299 -0.46875,0.0937 l -10.40625,1.65625 c 9.5e-4,-1.4e-4 -0.28219,0.0627 -0.28125,0.0625 9.4e-4,-2.3e-4 -0.28216,0.0628 -0.28125,0.0625 9.1e-4,-3.1e-4 -0.25088,0.12539 -0.25,0.125 8.8e-4,-3.9e-4 -0.28209,0.12546 -0.28125,0.125 8.4e-4,-4.6e-4 -0.2508,0.15679 -0.25,0.15625 8e-4,-5.4e-4 -0.2195,0.15686 -0.21875,0.15625 7.5e-4,-6.1e-4 -0.21944,0.18817 -0.21875,0.1875 6.9e-4,-6.7e-4 -0.18813,0.21948 -0.1875,0.21875 6.3e-4,-7.3e-4 -0.18806,0.21953 -0.1875,0.21875 5.6e-4,-7.8e-4 -0.15674,0.25083 -0.15625,0.25 4.9e-4,-8.3e-4 -0.12541,0.25087 -0.125,0.25 4.1e-4,-8.7e-4 -0.12534,0.28215 -0.125,0.28125 3.4e-4,-9e-4 -0.094,0.28218 -0.0937,0.28125 2.5e-4,-9.3e-4 -0.0627,0.2822 -0.0625,0.28125 1.7e-4,-9.5e-4 -0.0313,0.28221 -0.0312,0.28125 9e-5,-9.6e-4 -0.0312,0.28221 -0.0312,0.28125 l 0,26.09375 c -0.0757,-0.22358 -0.10542,-0.46716 -0.1875,-0.6875 -1.03209,-2.7702 -2.51741,-5.21689 -4.4375,-7.25 -1.92978,-2.04321 -4.26249,-3.64839 -6.90625,-4.75 a 1.6429806,1.6429806 0 0 0 -0.46875,-0.0937 1.6429806,1.6429806 0 0 0 -0.15625,-0.0312 c -2.45376,-0.95332 -5.11437,-1.56246 -7.96875,-1.5625 -3.04917,4e-5 -5.93445,0.5795 -8.59375,1.6875 a 1.6429806,1.6429806 0 0 0 -0.4375,0.28125 c -2.40175,1.0783 -4.60805,2.49241 -6.46875,4.40625 a 1.6429806,1.6429806 0 0 0 -0.1875,0.28125 1.6429806,1.6429806 0 0 0 -0.125,0.15625 c -1.75376,1.94695 -3.17226,4.22364 -4.1875,6.8125 a 1.6429806,1.6429806 0 0 0 -0.0312,0.0625 c -1.03209,-2.7702 -2.51741,-5.21689 -4.4375,-7.25 -1.92978,-2.04321 -4.26249,-3.64839 -6.90625,-4.75 a 1.6429806,1.6429806 0 0 0 -0.46875,-0.0937 1.6429806,1.6429806 0 0 0 -0.15625,-0.0312 c -2.45376,-0.95332 -5.11437,-1.56246 -7.96875,-1.5625 -3.04917,4e-5 -5.93445,0.5795 -8.59375,1.6875 a 1.6429806,1.6429806 0 0 0 -0.4375,0.28125 c -2.40175,1.0783 -4.60805,2.49241 -6.46875,4.40625 a 1.6429806,1.6429806 0 0 0 -0.1875,0.28125 1.6429806,1.6429806 0 0 0 -0.125,0.15625 c -1.75376,1.94695 -3.17226,4.22364 -4.1875,6.8125 a 1.6429806,1.6429806 0 0 0 -0.0937,0.40625 1.6429806,1.6429806 0 0 0 -0.0312,0.15625 c -0.38079,1.09459 -0.71178,2.20652 -0.9375,3.375 -0.85561,-1.25138 -1.95691,-2.26671 -3.21875,-3.125 2.14035,-2.42855 3.46871,-5.40878 3.46875,-8.75 -4e-5,-3.03044 -0.64449,-5.83637 -2.09375,-8.1875 l -0.0312,0.0312 c -0.19834,-0.3133 -0.3688,-0.46394 -0.375,-0.46875 -1.29722,-2.03022 -3.00263,-3.79284 -5.15625,-5.03125 -2.28846,-1.31577 -4.93095,-2.15076 -7.84375,-2.625 -0.0103,-0.002 -0.0209,0.002 -0.0312,0 -2.79734,-0.50649 -5.817222,-0.7812 -9.09375,-0.78125 -2.415212,5e-5 -5.027768,0.1657 -7.78125,0.40625 0.255343,-0.0223 0.246879,-0.0245 -0.03125,0 -2.763462,0.19629 -5.315027,0.49401 -7.6875,0.9375 -0.0095,0.002 -0.02175,-0.002 -0.03125,0 -0.04702,0.0101 -0.250825,0.0627 -0.25,0.0625 9.22e-4,-2.4e-4 -0.250898,0.0941 -0.25,0.0937 8.98e-4,-3.2e-4 -0.282116,0.0942 -0.28125,0.0937 8.66e-4,-4e-4 -0.250828,0.12547 -0.25,0.125 8.28e-4,-4.7e-4 -0.250783,0.15679 -0.25,0.15625 7.83e-4,-5.4e-4 -0.219482,0.18811 -0.21875,0.1875 7.32e-4,-6.1e-4 -0.219426,0.18817 -0.21875,0.1875 6.76e-4,-6.7e-4 -0.188114,0.21948 -0.1875,0.21875 6.14e-4,-7.3e-4 -0.188048,0.21953 -0.1875,0.21875 5.48e-4,-7.8e-4 -0.156727,0.25082 -0.15625,0.25 4.77e-4,-8.2e-4 -0.125403,0.25086 -0.125,0.25 4.03e-4,-8.6e-4 -0.09408,0.2509 -0.09375,0.25 3.25e-4,-9e-4 -0.094,0.28217 -0.09375,0.28125 2.45e-4,-9.2e-4 -0.06266,0.28219 -0.0625,0.28125 1.64e-4,-9.4e-4 -0.03133,0.2822 -0.03125,0.28125 8e-5,-9.5e-4 -0.03125,0.2822 -0.03125,0.28125 l 0,47.53125 c -8e-6,-9.2e-4 0.03134,0.28216 0.03125,0.28125 -8.6e-5,-9.1e-4 0.03141,0.28215 0.03125,0.28125 -1.63e-4,-9e-4 0.06274,0.28214 0.0625,0.28125 -2.39e-4,-8.9e-4 0.09406,0.25086 0.09375,0.25 -3.13e-4,-8.6e-4 0.09413,0.25083 0.09375,0.25 -3.85e-4,-8.3e-4 0.125454,0.2508 0.125,0.25 -4.54e-4,-8e-4 0.15677,0.25076 0.15625,0.25 -5.2e-4,-7.6e-4 0.156832,0.21946 0.15625,0.21875 -5.82e-4,-7.1e-4 0.18814,0.18816 0.1875,0.1875 -6.4e-4,-6.6e-4 0.188194,0.1881 0.1875,0.1875 -6.94e-4,-6e-4 0.219492,0.18804 0.21875,0.1875 -7.42e-4,-5.4e-4 0.250785,0.15673 0.25,0.15625 -7.85e-4,-4.8e-4 0.219573,0.12541 0.21875,0.125 -8.23e-4,-4.1e-4 0.250854,0.0941 0.25,0.0937 -8.54e-4,-3.4e-4 0.28213,0.094 0.28125,0.0937 -8.8e-4,-2.6e-4 0.250899,0.0627 0.25,0.0625 3.019798,0.64357 5.93676,1.03509 8.75,1.1875 0.01033,7.2e-4 0.02092,-7.2e-4 0.03125,0 2.732584,0.1905 5.496327,0.34375 8.25,0.34375 7.77805,0 13.98715,-1.33641 18.53125,-4.5 2.87453,-1.97625 4.80598,-4.75214 5.9375,-7.96875 0.99597,2.36356 2.26139,4.551 3.9375,6.375 a 1.6429806,1.6429806 0 0 0 0.375,0.28125 1.6429806,1.6429806 0 0 0 0.0312,0 c 1.74759,1.77157 3.76913,3.20779 6.09375,4.25 a 1.6429806,1.6429806 0 0 0 0.375,0.25 c 2.70147,1.12562 5.64608,1.65625 8.75,1.65625 2.93159,0 5.67374,-0.5526 8.1875,-1.53125 a 1.6429806,1.6429806 0 0 0 0.5625,-0.125 c 2.51071,-1.04615 4.68288,-2.60407 6.53125,-4.46875 0.006,-0.006 0.0257,0.006 0.0312,0 a 1.6429806,1.6429806 0 0 0 0.34375,-0.3125 1.6429806,1.6429806 0 0 0 0.0625,0 c 1.89119,-2.05809 3.30529,-4.53534 4.28125,-7.25 1.02626,2.73123 2.45501,5.19461 4.34375,7.25 a 1.6429806,1.6429806 0 0 0 0.375,0.28125 1.6429806,1.6429806 0 0 0 0.0312,0 c 1.74759,1.77157 3.76913,3.20779 6.09375,4.25 a 1.6429806,1.6429806 0 0 0 0.375,0.25 c 2.70147,1.12562 5.64608,1.65625 8.75,1.65625 2.93159,0 5.67374,-0.5526 8.1875,-1.53125 a 1.6429806,1.6429806 0 0 0 0.5625,-0.125 c 2.51983,-1.04994 4.66646,-2.61613 6.5,-4.46875 0.006,-0.006 0.0257,0.006 0.0312,0 a 1.6429806,1.6429806 0 0 0 0.125,-0.0937 1.6429806,1.6429806 0 0 0 0.21875,-0.21875 1.6429806,1.6429806 0 0 0 0.0625,0 c 1.9077,-2.07606 3.38972,-4.58347 4.375,-7.375 0.0277,-0.0801 0.0356,-0.16951 0.0625,-0.25 l 0,9.8125 c 1e-5,-0.001 0.0314,0.31357 0.0312,0.3125 -1e-4,-0.001 0.0315,0.31356 0.0312,0.3125 -2e-4,-0.001 0.0941,0.31353 0.0937,0.3125 -3.1e-4,-0.001 0.0942,0.3135 0.0937,0.3125 -4.1e-4,-0.001 0.15675,0.2822 0.15625,0.28125 -5e-4,-9.5e-4 0.15685,0.28215 0.15625,0.28125 -6e-4,-9e-4 0.18818,0.25083 0.1875,0.25 -6.8e-4,-8.3e-4 0.21951,0.25076 0.21875,0.25 -7.6e-4,-7.6e-4 0.25083,0.21943 0.25,0.21875 -8.3e-4,-6.8e-4 0.2509,0.1881 0.25,0.1875 -9e-4,-6e-4 0.2822,0.15675 0.28125,0.15625 -9.5e-4,-5e-4 0.28225,0.15666 0.28125,0.15625 -0.001,-4.1e-4 0.31353,0.0941 0.3125,0.0937 -0.001,-3.1e-4 0.31356,0.094 0.3125,0.0937 -0.001,-2e-4 0.31357,0.0314 0.3125,0.0312 -0.001,-1e-4 0.31358,0.0312 0.3125,0.0312 l 10.53125,0 c -0.001,-1e-5 0.31357,-0.0314 0.3125,-0.0312 -0.001,1e-4 0.31356,-0.0315 0.3125,-0.0312 -0.001,2e-4 0.31353,-0.0941 0.3125,-0.0937 -0.001,3.1e-4 0.3135,-0.0942 0.3125,-0.0937 -0.001,4.1e-4 0.2822,-0.15675 0.28125,-0.15625 -9.5e-4,5e-4 0.28215,-0.15685 0.28125,-0.15625 -9e-4,6e-4 0.25083,-0.18818 0.25,-0.1875 -8.3e-4,6.8e-4 0.25076,-0.21951 0.25,-0.21875 -7.6e-4,7.6e-4 0.21943,-0.25083 0.21875,-0.25 -6.8e-4,8.3e-4 0.1881,-0.2509 0.1875,-0.25 -6e-4,9e-4 0.15675,-0.2822 0.15625,-0.28125 -5e-4,9.5e-4 0.15666,-0.28225 0.15625,-0.28125 -4.1e-4,0.001 0.0941,-0.31353 0.0937,-0.3125 -3.1e-4,0.001 0.094,-0.31356 0.0937,-0.3125 -2e-4,0.001 0.0314,-0.31357 0.0312,-0.3125 -1e-4,0.001 0.0312,-0.31358 0.0312,-0.3125 l 0,-7.96875 c 0.3582,0.46586 0.74737,0.8931 1.09375,1.375 a 1.6429806,1.6429806 0 0 0 0.0625,0.0312 1.6429806,1.6429806 0 0 0 0.0937,0.15625 c -2.1e-4,-2.1e-4 0.0627,0.0627 0.0625,0.0625 0.95365,1.29973 1.83065,2.62993 2.6875,4 a 1.6429806,1.6429806 0 0 0 0,0.0312 1.6429806,1.6429806 0 0 0 0.0625,0.0937 c 0.97049,1.43265 1.84949,2.74873 2.5625,3.90625 -4e-5,-7e-5 -0.003,0.0272 0,0.0312 0.0203,0.0315 0.12535,0.15676 0.125,0.15625 -4e-4,-5.7e-4 0.12543,0.15679 0.125,0.15625 -4.3e-4,-5.4e-4 0.12547,0.15677 0.125,0.15625 -4.7e-4,-5.2e-4 0.1255,0.15674 0.125,0.15625 -5e-4,-4.9e-4 0.15678,0.12545 0.15625,0.125 -5.3e-4,-4.5e-4 0.18806,0.15667 0.1875,0.15625 -5.6e-4,-4.2e-4 0.15683,0.0941 0.15625,0.0937 -5.8e-4,-3.8e-4 0.1881,0.12534 0.1875,0.125 -6e-4,-3.4e-4 0.18812,0.0941 0.1875,0.0937 -6.2e-4,-3e-4 0.18814,0.094 0.1875,0.0937 -6.4e-4,-2.6e-4 0.18816,0.0627 0.1875,0.0625 -6.6e-4,-2.2e-4 0.18817,0.0627 0.1875,0.0625 -6.7e-4,-1.8e-4 0.21943,0.0626 0.21875,0.0625 -6.8e-4,-1.4e-4 0.21944,0.0313 0.21875,0.0312 -6.9e-4,-9e-5 0.18819,5e-5 0.1875,0 -6.9e-4,-5e-5 0.21944,0.0312 0.21875,0.0312 l 12.09375,0 a 1.6429806,1.6429806 0 0 0 0.0312,0 c -0.001,3e-5 0.37626,-0.0314 0.375,-0.0312 -0.001,1.8e-4 0.37623,-0.0941 0.375,-0.0937 -0.001,3.2e-4 0.37618,-0.12546 0.375,-0.125 -3.5e-4,1.4e-4 0.0514,-0.0429 0.0937,-0.0625 0.0974,0.0438 0.18817,0.094 0.1875,0.0937 -0.001,-4.6e-4 0.37626,0.0941 0.375,0.0937 -0.001,-3.1e-4 0.37628,0.0939 0.375,0.0937 -0.001,-1.6e-4 0.40754,0.0313 0.40625,0.0312 l 10.53125,0 c -0.001,-1e-5 0.31357,-0.0314 0.3125,-0.0312 -0.001,1e-4 0.31356,-0.0315 0.3125,-0.0312 -0.001,2e-4 0.31353,-0.0941 0.3125,-0.0937 -0.001,3.1e-4 0.3135,-0.0942 0.3125,-0.0937 -0.001,4.1e-4 0.2822,-0.15675 0.28125,-0.15625 -9.5e-4,5e-4 0.28215,-0.15685 0.28125,-0.15625 -9e-4,6e-4 0.25083,-0.18818 0.25,-0.1875 -8.3e-4,6.8e-4 0.25076,-0.21951 0.25,-0.21875 -7.6e-4,7.6e-4 0.21943,-0.25083 0.21875,-0.25 -6.8e-4,8.3e-4 0.1881,-0.2509 0.1875,-0.25 -6e-4,9e-4 0.15675,-0.2822 0.15625,-0.28125 -5e-4,9.5e-4 0.15666,-0.28225 0.15625,-0.28125 -4.1e-4,0.001 0.0941,-0.31353 0.0937,-0.3125 -3.1e-4,0.001 0.094,-0.31356 0.0937,-0.3125 -2e-4,0.001 0.0313,-0.31357 0.0312,-0.3125 -10e-5,0.001 0.0312,-0.31358 0.0312,-0.3125 l 0,-37.21875 c -10e-6,0.001 -0.0313,-0.31357 -0.0312,-0.3125 10e-5,0.001 -0.0315,-0.31356 -0.0312,-0.3125 2e-4,0.001 -0.0941,-0.31353 -0.0937,-0.3125 3.1e-4,0.001 -0.0942,-0.3135 -0.0937,-0.3125 4.1e-4,0.001 -0.15675,-0.2822 -0.15625,-0.28125 5e-4,9.5e-4 -0.15685,-0.28215 -0.15625,-0.28125 6e-4,9e-4 -0.18818,-0.25083 -0.1875,-0.25 6.8e-4,8.3e-4 -0.21951,-0.25076 -0.21875,-0.25 7.6e-4,7.6e-4 -0.25083,-0.21943 -0.25,-0.21875 8.3e-4,6.8e-4 -0.2509,-0.1881 -0.25,-0.1875 9e-4,6e-4 -0.2822,-0.15675 -0.28125,-0.15625 9.5e-4,5e-4 -0.28225,-0.15666 -0.28125,-0.15625 0.001,4.1e-4 -0.31353,-0.0941 -0.3125,-0.0937 0.001,3.1e-4 -0.31356,-0.094 -0.3125,-0.0937 6.4e-4,1.2e-4 -0.0948,-0.0182 -0.1875,-0.0312 0.25484,-0.18407 0.57437,-0.25809 0.8125,-0.46875 1.99114,-1.76986 3.03123,-4.33628 3.03125,-7.03125 -2e-5,-2.37602 -0.96662,-4.53945 -2.53125,-6.21875 a 1.6429806,1.6429806 0 0 0 -0.0312,-0.0625 1.6429806,1.6429806 0 0 0 -0.40625,-0.65625 c -0.0454,-0.0419 -0.0511,0.002 -0.0937,-0.0312 -0.17311,-0.15699 -0.18193,-0.1448 -0.28125,-0.1875 -0.0728,-0.0289 -0.24472,-0.12322 -0.25,-0.125 -1.72206,-1.37102 -3.78774,-2.21868 -6,-2.21875 -2.43811,7e-5 -4.76746,0.90795 -6.59375,2.53125 -1.97302,1.74543 -2.96875,4.29572 -2.96875,6.96875 0,2.66898 0.98134,5.22325 2.90625,7 a 1.6429806,1.6429806 0 0 0 0.34375,0.21875 c -4.2e-4,-2.2e-4 0.15667,0.094 0.15625,0.0937 l 0,-0.0312 c 0.13427,0.1049 0.2987,0.15221 0.4375,0.25 8.7e-4,-1.3e-4 -0.2821,0.0315 -0.28125,0.0312 8.5e-4,-2e-4 -0.25083,0.0628 -0.25,0.0625 8.3e-4,-2.7e-4 -0.25081,0.0941 -0.25,0.0937 8.1e-4,-3.4e-4 -0.21953,0.1254 -0.21875,0.125 2.7e-4,-1.4e-4 -0.0572,0.0105 -0.0937,0.0312 7.6e-4,4e-4 -0.21954,-0.12534 -0.21875,-0.125 7.9e-4,3.4e-4 -0.25082,-0.094 -0.25,-0.0937 8.2e-4,2.8e-4 -0.25084,-0.0627 -0.25,-0.0625 8.4e-4,2.1e-4 -0.25085,-0.0626 -0.25,-0.0625 8.5e-4,1.4e-4 -0.25086,-0.0313 -0.25,-0.0312 8.6e-4,8e-5 -0.28211,-0.0313 -0.28125,-0.0312 l -12.53125,0 c 0.001,0 -0.34495,0.0314 -0.34375,0.0312 0.001,-1.3e-4 -0.37617,0.0628 -0.375,0.0625 0.001,-2.6e-4 -0.34489,0.0941 -0.34375,0.0937 0.001,-3.9e-4 -0.34484,0.12552 -0.34375,0.125 0.001,-5.2e-4 -0.31352,0.18813 -0.3125,0.1875 0.001,-6.3e-4 -0.2822,0.21949 -0.28125,0.21875 9.5e-4,-7.4e-4 -0.28211,0.21959 -0.28125,0.21875 8.6e-4,-8.4e-4 -0.25076,0.28218 -0.25,0.28125 -0.62017,0.75307 -1.38176,1.65466 -2.25,2.65625 2.1e-4,-2.1e-4 -0.0627,0.0627 -0.0625,0.0625 -0.0171,0.0197 -0.0141,0.0428 -0.0312,0.0625 a 1.6429806,1.6429806 0 0 0 -0.0625,0.0625 c -0.86135,1.0427 -1.8017,2.14374 -2.84375,3.375 -2e-5,3e-5 8.8e-4,0.0295 0,0.0312 -0.001,0.003 -0.0283,0.0252 -0.0312,0.0312 -0.208,0.23608 -0.44433,0.48105 -0.65625,0.71875 l 0,-22.59375 c 0,1e-4 2e-4,-0.0264 0,-0.0312 -0.002,-0.0489 -0.0313,-0.3135 -0.0312,-0.3125 1e-4,0.001 -0.0315,-0.34483 -0.0312,-0.34375 2.1e-4,0.001 -0.0941,-0.31355 -0.0937,-0.3125 3.2e-4,0.001 -0.12543,-0.31352 -0.125,-0.3125 4.3e-4,0.001 -0.12553,-0.28222 -0.125,-0.28125 5.3e-4,9.7e-4 -0.18812,-0.28216 -0.1875,-0.28125 6.2e-4,9.1e-4 -0.18821,-0.28209 -0.1875,-0.28125 7.1e-4,8.4e-4 -0.21954,-0.25076 -0.21875,-0.25 7.9e-4,7.6e-4 -0.25087,-0.18818 -0.25,-0.1875 8.7e-4,6.8e-4 -0.28218,-0.21934 -0.28125,-0.21875 9.3e-4,5.9e-4 -0.28224,-0.15674 -0.28125,-0.15625 9.9e-4,4.9e-4 -0.31353,-0.12539 -0.3125,-0.125 0.001,3.9e-4 -0.31357,-0.094 -0.3125,-0.0937 0.001,2.8e-4 -0.31359,-0.0627 -0.3125,-0.0625 0.001,1.7e-4 -0.34485,-0.0313 -0.34375,-0.0312 0.001,6e-5 -0.34485,-0.0312 -0.34375,-0.0312 z m 60.8125,16.84375 c -3.25525,4e-5 -6.38582,0.2485 -9.40625,0.75 -0.01,0.002 -0.0213,-0.002 -0.0312,0 -2.91699,0.43897 -5.32559,0.99777 -7.28125,1.5625 -0.008,0.002 -0.0232,-0.002 -0.0312,0 -0.0542,0.0171 -0.21945,0.0627 -0.21875,0.0625 8.2e-4,-3e-4 -0.2508,0.0941 -0.25,0.0937 8e-4,-3.6e-4 -0.21951,0.12542 -0.21875,0.125 7.6e-4,-4.2e-4 -0.21948,0.12549 -0.21875,0.125 7.3e-4,-4.9e-4 -0.21944,0.15679 -0.21875,0.15625 6.9e-4,-5.4e-4 -0.18814,0.1881 -0.1875,0.1875 6.4e-4,-6e-4 -0.18809,0.18815 -0.1875,0.1875 5.9e-4,-6.5e-4 -0.18804,0.18819 -0.1875,0.1875 5.4e-4,-6.9e-4 -0.15673,0.21948 -0.15625,0.21875 4.8e-4,-7.3e-4 -0.12542,0.21952 -0.125,0.21875 4.2e-4,-7.7e-4 -0.12535,0.2508 -0.125,0.25 3.5e-4,-8e-4 -0.094,0.21957 -0.0937,0.21875 2.9e-4,-8.2e-4 -0.0627,0.25085 -0.0625,0.25 2.2e-4,-8.5e-4 -0.0627,0.28211 -0.0625,0.28125 1.5e-4,-8.6e-4 -0.0313,0.25087 -0.0312,0.25 8e-5,-8.7e-4 -0.0313,0.25087 -0.0312,0.25 a 1.6429806,1.6429806 0 0 0 0,0.0312 l 0,35.9375 c 10e-6,-0.001 0.0313,0.31357 0.0312,0.3125 -10e-5,-0.001 0.0315,0.31356 0.0312,0.3125 -2e-4,-0.001 0.0941,0.31353 0.0937,0.3125 -3.1e-4,-0.001 0.0942,0.3135 0.0937,0.3125 -4.1e-4,-0.001 0.15675,0.2822 0.15625,0.28125 -5e-4,-9.5e-4 0.15685,0.28215 0.15625,0.28125 -6e-4,-9e-4 0.18818,0.25083 0.1875,0.25 -6.8e-4,-8.3e-4 0.21951,0.25076 0.21875,0.25 -7.6e-4,-7.6e-4 0.25083,0.21943 0.25,0.21875 -8.3e-4,-6.8e-4 0.2509,0.1881 0.25,0.1875 -9e-4,-6e-4 0.2822,0.15675 0.28125,0.15625 -9.5e-4,-5e-4 0.28225,0.15666 0.28125,0.15625 -10e-4,-4.1e-4 0.31353,0.0941 0.3125,0.0937 -0.001,-3.1e-4 0.31356,0.094 0.3125,0.0937 -0.001,-2e-4 0.31357,0.0314 0.3125,0.0312 -0.001,-1e-4 0.31358,0.0312 0.3125,0.0312 l 10.53125,0 c -0.001,-1e-5 0.31357,-0.0314 0.3125,-0.0312 -0.001,1e-4 0.31356,-0.0315 0.3125,-0.0312 -0.001,2e-4 0.31353,-0.0941 0.3125,-0.0937 -0.001,3.1e-4 0.3135,-0.0942 0.3125,-0.0937 -10e-4,4.1e-4 0.2822,-0.15675 0.28125,-0.15625 -9.5e-4,5e-4 0.28215,-0.15685 0.28125,-0.15625 -9e-4,6e-4 0.25083,-0.18818 0.25,-0.1875 -8.3e-4,6.8e-4 0.25076,-0.21951 0.25,-0.21875 -7.6e-4,7.6e-4 0.21943,-0.25083 0.21875,-0.25 -6.8e-4,8.3e-4 0.1881,-0.2509 0.1875,-0.25 -6e-4,9e-4 0.15675,-0.2822 0.15625,-0.28125 -5e-4,9.5e-4 0.15666,-0.28225 0.15625,-0.28125 -4.1e-4,0.001 0.0941,-0.31353 0.0937,-0.3125 -3.1e-4,0.001 0.094,-0.31356 0.0937,-0.3125 -2e-4,0.001 0.0313,-0.31357 0.0312,-0.3125 -10e-5,0.001 0.0312,-0.31358 0.0312,-0.3125 l 0,-25.75 c 0.48871,-0.037 0.98402,-0.0625 1.40625,-0.0625 0.93649,1e-5 1.51573,0.0971 1.8125,0.21875 0.29677,0.12168 0.35779,0.19981 0.46875,0.375 0.19204,0.30323 0.81247,2.38666 0.8125,5.46875 l 0,19.75 c 10e-6,-0.001 0.0313,0.31357 0.0312,0.3125 -10e-5,-0.001 0.0315,0.31356 0.0312,0.3125 -2e-4,-0.001 0.0941,0.31353 0.0937,0.3125 -3.1e-4,-0.001 0.0942,0.3135 0.0937,0.3125 -4.1e-4,-0.001 0.15675,0.2822 0.15625,0.28125 -5e-4,-9.5e-4 0.15685,0.28215 0.15625,0.28125 -6e-4,-9e-4 0.18818,0.25083 0.1875,0.25 -6.8e-4,-8.3e-4 0.21951,0.25076 0.21875,0.25 -7.6e-4,-7.6e-4 0.25083,0.21943 0.25,0.21875 -8.3e-4,-6.8e-4 0.2509,0.1881 0.25,0.1875 -9e-4,-6e-4 0.2822,0.15675 0.28125,0.15625 -9.5e-4,-5e-4 0.28225,0.15666 0.28125,0.15625 -10e-4,-4.1e-4 0.31353,0.0941 0.3125,0.0937 -0.001,-3.1e-4 0.31356,0.094 0.3125,0.0937 -0.001,-2e-4 0.31357,0.0314 0.3125,0.0312 -0.001,-1e-4 0.31358,0.0312 0.3125,0.0312 l 10.53125,0 c -0.001,-1e-5 0.31357,-0.0314 0.3125,-0.0312 -0.001,1e-4 0.31356,-0.0315 0.3125,-0.0312 -0.001,2e-4 0.31353,-0.0941 0.3125,-0.0937 -0.001,3.1e-4 0.3135,-0.0942 0.3125,-0.0937 -10e-4,4.1e-4 0.2822,-0.15675 0.28125,-0.15625 -9.5e-4,5e-4 0.28215,-0.15685 0.28125,-0.15625 -9e-4,6e-4 0.25083,-0.18818 0.25,-0.1875 -8.3e-4,6.8e-4 0.25076,-0.21951 0.25,-0.21875 -7.6e-4,7.6e-4 0.21943,-0.25083 0.21875,-0.25 -6.8e-4,8.3e-4 0.1881,-0.2509 0.1875,-0.25 -6e-4,9e-4 0.15675,-0.2822 0.15625,-0.28125 -5e-4,9.5e-4 0.15666,-0.28225 0.15625,-0.28125 -4.1e-4,0.001 0.0941,-0.31353 0.0937,-0.3125 -3.1e-4,0.001 0.094,-0.31356 0.0937,-0.3125 -2e-4,0.001 0.0313,-0.31357 0.0312,-0.3125 -10e-5,0.001 0.0312,-0.31358 0.0312,-0.3125 l 0,-10.34375 c 0.7362,1.87314 1.7089,3.59684 2.96875,5.09375 0.005,0.006 -0.005,0.0248 0,0.0312 a 1.6429806,1.6429806 0 0 0 0.28125,0.375 1.6429806,1.6429806 0 0 0 0,0.0312 c 3.43122,3.78619 8.43996,5.59375 14.21875,5.59375 0.83395,0 1.58476,-0.14499 2.375,-0.21875 -0.61384,0.27039 -1.51922,0.53125 -3.21875,0.53125 -2.13713,0 -4.00997,-0.1524 -5.5625,-0.46875 l 0,0.0312 c -1.59027,-0.33642 -3.15463,-0.84935 -4.625,-1.4375 a 1.6429806,1.6429806 0 0 0 -0.0312,0 c 0.001,4.2e-4 -0.34489,-0.1253 -0.34375,-0.125 0.001,3e-4 -0.34491,-0.0627 -0.34375,-0.0625 0.001,1.7e-4 -0.34493,-0.0313 -0.34375,-0.0312 0.001,5e-5 -0.37617,8e-5 -0.375,0 0.001,-8e-5 -0.34491,0.0627 -0.34375,0.0625 0.001,-2.1e-4 -0.34488,0.0628 -0.34375,0.0625 0.001,-3.3e-4 -0.31359,0.12545 -0.3125,0.125 0.001,-4.5e-4 -0.34478,0.15682 -0.34375,0.15625 0.001,-5.7e-4 -0.28221,0.18818 -0.28125,0.1875 9.6e-4,-6.8e-4 -0.28213,0.21953 -0.28125,0.21875 8.8e-4,-7.8e-4 -0.2508,0.25087 -0.25,0.25 8e-4,-8.7e-4 -0.21945,0.2822 -0.21875,0.28125 7e-4,-9.5e-4 -0.21934,0.28227 -0.21875,0.28125 5.9e-4,-0.001 -0.15672,0.31358 -0.15625,0.3125 4.7e-4,-0.001 -0.12535,0.34487 -0.125,0.34375 3.5e-4,-0.001 -0.094,0.3449 -0.0937,0.34375 l 0.0312,0 -1.8125,8.8125 c 2e-4,-9.5e-4 -0.0626,0.28221 -0.0625,0.28125 1.1e-4,-9.6e-4 -0.0313,0.31347 -0.0312,0.3125 3e-5,-9.7e-4 0.0313,0.28222 0.0312,0.28125 -6e-5,-9.7e-4 0.0314,0.28221 0.0312,0.28125 -1.5e-4,-9.6e-4 0.0315,0.28219 0.0312,0.28125 -2.3e-4,-9.4e-4 0.0941,0.28217 0.0937,0.28125 -3.1e-4,-9.2e-4 0.0942,0.28213 0.0937,0.28125 -4e-4,-8.8e-4 0.15672,0.25085 0.15625,0.25 -4.7e-4,-8.5e-4 0.12555,0.2508 0.125,0.25 -5.5e-4,-8e-4 0.18812,0.25075 0.1875,0.25 -6.2e-4,-7.5e-4 0.18818,0.21944 0.1875,0.21875 -6.8e-4,-6.9e-4 0.21949,0.18813 0.21875,0.1875 -7.4e-4,-6.3e-4 0.21954,0.18806 0.21875,0.1875 -7.9e-4,-5.6e-4 0.25084,0.15673 0.25,0.15625 -8.4e-4,-4.8e-4 0.28213,0.12541 0.28125,0.125 -8.8e-4,-4.1e-4 0.25091,0.0941 0.25,0.0937 a 1.6429806,1.6429806 0 0 0 0.0312,0.0312 c 2.10405,0.71844 4.3671,1.28343 6.78125,1.6875 0.53251,0.0892 0.54138,0.0849 0.0312,0 2.4389,0.45327 4.87326,0.68749 7.3125,0.6875 6.93431,-1e-5 12.63946,-1.59552 16.53125,-5.34375 0.0323,-0.031 0.0292,-0.029 0.0312,-0.0312 l 0,-0.0312 c 3.90565,-3.70427 5.68746,-9.23112 5.6875,-15.84375 l 0,-31.25 c 10e-6,8.6e-4 -0.0313,-0.28211 -0.0312,-0.28125 8e-5,8.6e-4 -0.0314,-0.25085 -0.0312,-0.25 1.4e-4,8.5e-4 -0.0627,-0.25084 -0.0625,-0.25 2.1e-4,8.4e-4 -0.0628,-0.25082 -0.0625,-0.25 2.8e-4,8.2e-4 -0.0941,-0.25079 -0.0937,-0.25 3.4e-4,7.9e-4 -0.1254,-0.21951 -0.125,-0.21875 4e-4,7.6e-4 -0.12546,-0.21948 -0.125,-0.21875 4.6e-4,7.3e-4 -0.12552,-0.21944 -0.125,-0.21875 5.2e-4,6.9e-4 -0.18807,-0.2194 -0.1875,-0.21875 5.7e-4,6.5e-4 -0.15687,-0.1881 -0.15625,-0.1875 6.2e-4,6e-4 -0.21942,-0.1568 -0.21875,-0.15625 6.7e-4,5.5e-4 -0.18821,-0.15674 -0.1875,-0.15625 7.1e-4,4.9e-4 -0.2195,-0.15668 -0.21875,-0.15625 7.5e-4,4.3e-4 -0.25078,-0.12537 -0.25,-0.125 7.8e-4,3.7e-4 -0.21956,-0.0941 -0.21875,-0.0937 8.1e-4,3.1e-4 -0.25083,-0.0627 -0.25,-0.0625 -1.03421,-0.31021 -2.1908,-0.62597 -3.46875,-0.875 -0.0504,-0.0146 -0.0365,-0.0202 -0.0937,-0.0312 a 1.6429806,1.6429806 0 0 0 -0.34375,-0.0312 1.6429806,1.6429806 0 0 0 -0.0312,0 c -1.12091,-0.25929 -2.29824,-0.50685 -3.5625,-0.6875 -1.40306,-0.20039 -2.74761,-0.3101 -4.125,-0.40625 -0.0103,-7.2e-4 -0.0209,7.2e-4 -0.0312,0 -0.0102,-0.001 -0.021,0.001 -0.0312,0 -1.38012,-0.14625 -2.78309,-0.28121 -4.1875,-0.28125 -3.28634,4e-5 -6.31439,0.55826 -9.0625,1.59375 -0.009,0.003 -0.022,-0.003 -0.0312,0 -0.0197,0.007 -0.0107,-0.008 -0.0312,0 -2.72084,0.98757 -5.16028,2.43608 -7.15625,4.375 a 1.6429806,1.6429806 0 0 0 -0.28125,0.40625 c -1.77259,1.85627 -3.20709,4.0421 -4.15625,6.5625 -0.003,0.009 0.003,0.0223 0,0.0312 -0.20183,0.52931 -0.30974,1.10869 -0.46875,1.65625 -0.11428,-0.63909 -0.0653,-1.38628 -0.21875,-2 -0.6226,-2.49022 -1.70824,-4.72735 -3.25,-6.625 -1.4884,-1.83177 -3.50831,-3.15986 -5.78125,-4.125 a 1.6429806,1.6429806 0 0 0 -0.0625,-0.0625 c -0.0219,-0.009 -0.0405,-0.0222 -0.0625,-0.0312 a 1.6429806,1.6429806 0 0 0 -0.15625,-0.0937 1.6429806,1.6429806 0 0 0 -0.25,-0.15625 c -0.0656,-0.0268 -0.036,0.0186 -0.0937,0 -2.56936,-1.03439 -5.57491,-1.53121 -9,-1.53125 z m -178.25,3.9375 c 2.601265,4e-5 4.4121,0.43379 5.125,0.8125 0.36945,0.19628 0.40596,0.25345 0.4375,0.3125 0.0315,0.0591 0.0937,0.31721 0.0937,0.96875 -1e-5,0.59517 -0.0566,0.86547 -0.125,1 -0.0684,0.13453 -0.16013,0.22465 -0.5,0.4375 -0.47595,0.25638 -2.546234,0.81253 -5.59375,0.8125 l -2.09375,0 0,-4.3125 c 0.905326,-0.0311 1.794175,-0.0312 2.65625,-0.0312 z m 141.6875,5.28125 0,24.5 c -1.11841,-1.739 -2.31404,-3.48117 -3.59375,-5.1875 -1.44127,-1.92164 -2.93278,-3.7209 -4.46875,-5.5 -0.0148,-0.0171 -0.0164,-0.0454 -0.0312,-0.0625 -7.8e-4,-0.002 2e-5,-0.0312 0,-0.0312 a 1.6429806,1.6429806 0 0 0 -0.21875,-0.21875 1.6429806,1.6429806 0 0 0 -0.0625,-0.0312 c -0.72881,-0.84135 -1.40323,-1.50722 -2.09375,-2.1875 1.98349,-1.9959 3.95015,-3.99517 5.6875,-5.90625 1.55656,-1.70917 3.17555,-3.56231 4.78125,-5.375 z m 76.71875,5.8125 c 0.41787,1e-5 0.689,0.0433 1.03125,0.0625 l 0,11.71875 c -0.0226,0.007 -0.0388,0.0241 -0.0625,0.0312 -0.59792,0.17938 -1.31984,0.25001 -2.125,0.25 -1.76645,0 -2.25429,-0.27487 -2.8125,-0.96875 -0.49621,-0.61681 -1.03125,-2.08179 -1.03125,-4.59375 -10e-6,-2.33974 0.46049,-3.87467 1.34375,-5.0625 0.76564,-1.02965 1.55797,-1.43747 3.65625,-1.4375 z M 140.96875,180 c 1.62894,2e-5 2.02145,0.20312 2.8125,1.375 a 1.6429806,1.6429806 0 0 0 0.0625,0.0937 c 0.78236,1.08976 1.34372,2.89441 1.34375,5.71875 -3e-5,2.82136 -0.54241,4.71833 -1.375,5.9375 a 1.6429806,1.6429806 0 0 0 -0.0312,0.0312 c -0.79105,1.17191 -1.18358,1.37501 -2.8125,1.375 -1.60085,1e-5 -2.077,-0.23743 -2.90625,-1.40625 -0.0142,-0.02 -0.017,-0.0128 -0.0312,-0.0312 -0.81015,-1.21668 -1.34376,-3.12178 -1.34375,-5.90625 -1e-5,-2.82431 0.56137,-4.62901 1.34375,-5.71875 a 1.6429806,1.6429806 0 0 0 0,-0.0312 c 0.83649,-1.19498 1.31687,-1.43748 2.9375,-1.4375 z m 39.96875,0 c 1.63455,2e-5 1.97316,0.17787 2.78125,1.375 a 1.6429806,1.6429806 0 0 0 0.0625,0.0937 c 0.79797,1.1115 1.37497,2.91421 1.375,5.71875 -3e-5,2.80142 -0.55905,4.69694 -1.40625,5.9375 a 1.6429806,1.6429806 0 0 0 -0.0312,0.0312 c -0.80809,1.19715 -1.14672,1.37501 -2.78125,1.375 -1.60085,1e-5 -2.077,-0.23743 -2.90625,-1.40625 -0.007,-0.01 -0.0248,-0.0215 -0.0312,-0.0312 -0.81015,-1.21668 -1.34376,-3.12178 -1.34375,-5.90625 -1e-5,-2.82431 0.56137,-4.62901 1.34375,-5.71875 a 1.6429806,1.6429806 0 0 0 0,-0.0312 c 0.83649,-1.19498 1.31687,-1.43748 2.9375,-1.4375 z m -86.3125,7.78125 3.65625,0 c 2.80082,2e-5 4.72537,0.48826 5.65625,1.03125 a 1.6429806,1.6429806 0 0 0 0.0312,0.0312 1.6429806,1.6429806 0 0 0 0.0937,0.0625 c 0.31269,0.18915 0.46887,0.35035 0.5625,0.53125 0.10712,0.20696 0.21874,0.59495 0.21875,1.375 -1e-5,0.90216 -0.11702,1.33347 -0.25,1.5625 -0.13298,0.22903 -0.31176,0.41099 -0.90625,0.6875 -1.40845,0.65509 -3.59884,1.09376 -6.59375,1.09375 -0.95034,1e-5 -1.731654,-0.01 -2.46875,-0.0312 l 0,-6.34375 z"
         transform="matrix(0.83379165,0,0,0.90477104,328.66295,-87.372525)"
         inkscape:export-filename="/home/cellarosi/workspace/mercury_booking/booking/mb_media/images/png/title.png"
         inkscape:export-xdpi="500.57437"
         inkscape:export-ydpi="500.57437" />
    </g>
  </g>
</svg>
